<svg width="105" height="101" viewBox="0 0 105 101" fill="none" xmlns="http://www.w3.org/2000/svg">
<path d="M54.5965 42.9691C55.7768 40.9401 56.8809 38.9888 57.9695 37.0839C61.3889 31.0596 64.2511 24.7462 66.812 18.2806C68.432 14.1817 70.3532 10.2349 73.0423 6.69909C74.5858 4.63673 76.3542 2.80416 78.6465 1.66201C83.8694 -1.02784 88.239 0.946586 90.7721 5.71039C92.5756 9.04484 93.1669 12.6963 93.3187 16.4589C93.5523 23.2904 92.6381 29.9448 90.4998 36.5C88.2686 43.3334 85.5707 49.9079 81.9834 56.1339C81.5082 56.9547 80.9425 57.7454 80.4066 58.5975C82.0533 58.7864 83.625 58.8988 85.0895 59.1815C90.9334 60.2046 96.4985 62.0627 101.049 66.0564C102.025 66.8979 102.863 68.0026 103.611 69.0771C104.402 70.3209 104.527 71.7545 104.198 73.1913C103.948 74.242 103.262 74.9409 102.276 75.3335C100.456 76.1175 98.6589 75.7754 96.8014 75.4646C93.1925 74.8268 89.6145 74.0962 86.0496 73.6277C81.8047 73.0869 77.5943 73.9495 73.754 75.8121C71.7808 76.7514 69.9552 78.1525 68.1607 79.4609C65.1038 81.6881 62.0612 84.0233 59.0186 86.3584C57.193 87.7595 55.502 89.3601 53.6311 90.7461C48.1866 94.7023 42.2803 97.7826 35.7811 99.3246C32.6757 100.041 29.4833 100.264 26.2779 100.225C24.2371 100.162 22.195 100.253 20.2494 99.6037C17.0823 98.5463 13.808 97.6593 11.041 95.7045C10.4243 95.2923 9.80878 94.7259 9.26827 94.2362C8.50275 93.5166 7.56809 93.153 6.54173 92.9134C5.2439 92.5832 3.9318 92.1452 2.77213 91.5518C0.317055 90.3197 -0.738503 86.1007 2.39217 84.1043C2.78752 83.8239 3.25788 83.6201 3.68179 83.5554C4.86301 83.3311 5.39895 82.479 5.92062 81.519C8.06682 77.8019 10.288 74.1615 14.176 72.0055C16.9101 70.4437 19.793 69.1895 22.7044 68.1509C25.9041 67.0024 29.0882 65.9002 31.9307 64.0138C33.4966 62.9385 34.928 61.6636 36.3142 60.3735C39.0103 57.8712 40.4266 54.6837 41.0141 51.1165C41.4586 48.4294 40.8589 45.8577 39.3946 43.6161C37.9899 41.4973 35.8503 40.5252 33.5118 39.8476C30.9924 39.1095 28.4681 38.9885 25.8652 39.2536C24.8209 39.369 23.7171 39.3613 22.6443 39.2609C20.1807 39.1086 19.0308 37.2812 19.9718 34.9146C20.6507 33.1822 21.7654 31.8016 23.3754 30.8956C27.2336 28.6781 31.3858 27.5383 35.7651 28.2786C41.4733 29.2565 46.5811 31.5804 50.2788 36.3206C51.7157 38.1923 52.8787 40.2819 54.118 42.2938C54.3287 42.4157 54.418 42.6001 54.5965 42.9691ZM52.8301 63.774C52.7396 63.7438 52.6491 63.7136 52.5741 63.637C52.7754 63.034 53.0065 62.4925 53.1626 61.8744C54.7388 55.6472 54.9993 49.4446 52.3543 43.5093C50.0665 38.3119 46.3926 34.4045 41.1478 32.1894C37.2294 30.5203 33.243 29.808 29.0003 30.9177C27.3035 31.3306 25.6364 31.8051 24.311 33.0639C23.5191 33.779 22.8164 34.6786 22.265 35.5771C21.7135 36.4756 22.0576 36.9513 23.1459 37.0054C24.0377 37.0454 24.9296 37.0854 25.8226 36.9711C28.865 36.5949 31.9024 36.8357 34.8136 37.7561C37.77 38.6916 40.4501 40.1535 41.9238 43.1201C43.2344 45.6713 43.8186 48.2894 43.3419 51.2235C42.6305 55.1618 41.2106 58.812 38.3906 61.6854C35.7838 64.3723 32.7876 66.5683 29.2986 67.9811C25.6274 69.4877 21.8515 70.8562 18.1946 72.4708C15.0688 73.8502 12.1965 75.6751 10.2374 78.6813C9.39534 79.9983 8.58307 81.3768 7.8613 82.7855C7.12404 84.2407 6.16298 85.3117 4.54237 85.6471C4.4364 85.6633 4.37567 85.6945 4.2542 85.7571C3.57189 85.9933 2.90385 86.3373 2.77633 87.1711C2.63332 88.0513 2.89872 88.9133 3.65119 89.3707C4.49414 89.8583 5.38234 90.3611 6.28845 90.509C8.34238 90.8338 9.96877 91.6862 11.4998 93.1253C12.3856 93.9366 13.4393 94.5461 14.4477 95.1406C16.4194 96.3144 18.6841 96.7612 20.8415 97.3784C22.5763 97.906 24.391 97.8932 26.1747 97.9732C29.2586 98.0749 32.2997 97.8529 35.2992 97.1531C41.5709 95.6899 47.2189 92.7811 52.4205 88.95C54.2305 87.5953 55.8608 86.0259 57.6709 84.6712C61.5042 81.7752 65.3066 78.9719 69.1994 76.1989C71.1917 74.7504 73.2875 73.5942 75.5774 72.7606C79.5808 71.3133 83.7566 71.0062 87.88 71.6096C91.1877 72.0953 94.493 72.8895 97.8305 73.4367C98.9331 73.5986 100.129 73.4822 101.248 73.4435C101.807 73.4241 102.068 72.9441 102.118 72.3422C102.25 71.0456 101.759 69.9539 100.919 69.1577C99.5376 67.8718 98.0506 66.602 96.4706 65.6105C93.25 63.6589 89.7209 62.4806 86.0525 61.7198C80.7837 60.6309 75.5648 60.8991 70.3671 62.3085C66.003 63.4807 61.965 65.4835 57.9865 67.6093C55.2227 69.1095 52.5481 70.7942 50.1878 72.8932C48.1776 74.6966 46.1519 76.5464 44.0668 78.2732C40.5656 81.2286 36.6324 83.3695 32.3266 84.8189C27.9148 86.2845 23.4043 86.8407 18.851 87.0733C18.4878 87.1067 18.1401 87.0937 17.8079 87.0344C17.2947 86.9146 16.9042 86.578 16.9543 85.9761C17.0044 85.3742 17.3545 85.0786 17.8999 84.9514C18.1726 84.8878 18.4298 84.8705 18.7322 84.8684C20.5933 84.7165 22.4389 84.6109 24.2703 84.3975C28.9927 83.8089 33.6295 82.5731 37.7629 79.9835C40.422 78.3452 42.9025 76.3379 45.3973 74.4385C47.1467 73.1151 48.6115 71.4389 49.7906 69.5642C50.9696 67.6896 51.832 65.7091 52.8301 63.774ZM53.5714 67.5787C55.8041 66.3135 57.9762 65.0797 60.1172 63.9386C65.508 61.0471 71.2225 59.2946 77.2607 58.6814C77.5631 58.6793 77.8977 58.4301 78.0812 58.182C79.3829 56.0905 80.7001 53.9526 81.8661 51.8158C84.3518 47.2326 86.2196 42.3915 87.9218 37.4436C90.5055 30.0061 91.639 22.3938 90.9745 14.5936C90.7534 11.9421 90.1536 9.3704 89.0228 7.03381C87.1337 3.05213 84.2714 1.68407 80.0382 3.51859C77.8078 4.47521 76.1763 6.19884 74.7698 8.15226C72.0342 11.8272 70.1868 16.0049 68.4299 20.2128C67.2591 22.9666 66.1787 25.7507 64.9626 28.4894C62.316 34.3077 59.0669 39.8218 55.7274 45.3057C55.6047 45.5225 55.5415 45.8623 55.5701 46.078C57.0386 51.6205 56.7533 57.1446 55.2284 62.6157C54.7923 64.2229 54.1598 65.8161 53.5714 67.5787Z" fill="black"/>
<path d="M52.8301 63.774C51.8475 65.6627 51.0304 67.6584 49.8668 69.4867C48.7033 71.315 47.223 73.0376 45.4736 74.361C42.9335 76.2453 40.4982 78.2676 37.8392 79.906C33.7213 82.4492 29.1297 83.7001 24.3466 84.3199C22.5152 84.5334 20.6696 84.6389 18.8085 84.7908C18.5513 84.8081 18.2488 84.8102 17.9762 84.8738C17.4308 85.0011 17.0354 85.2815 17.0306 85.8985C17.0257 86.5155 17.371 86.837 17.8842 86.9568C18.2009 87.0626 18.5641 87.0291 18.9272 86.9957C23.4806 86.7631 27.9911 86.2069 32.4029 84.7413C36.7087 83.2919 40.6419 81.151 44.143 78.1957C46.2282 76.4688 48.2539 74.619 50.2641 72.8156C52.6244 70.7167 55.2989 69.0319 58.0628 67.5317C62.0568 65.3595 66.0793 63.4031 70.4434 62.2309C75.6411 60.8215 80.86 60.5534 86.1287 61.6422C89.7972 62.4031 93.3263 63.5813 96.5469 65.533C98.1268 66.5244 99.6139 67.7942 100.995 69.0802C101.835 69.8763 102.326 70.968 102.195 72.2646C102.145 72.8665 101.899 73.3002 101.324 73.3659C100.189 73.451 98.9939 73.5674 97.9068 73.3591C94.5693 72.8119 91.3092 72.0328 87.9563 71.532C83.7877 70.9135 79.657 71.2357 75.6537 72.683C73.3638 73.5166 71.2525 74.7192 69.2757 76.1214C65.4281 78.9095 61.565 81.744 57.7472 84.5936C55.9371 85.9483 54.3068 87.5177 52.4967 88.8724C47.2951 92.7035 41.6472 95.6123 35.3755 97.0756C32.376 97.7754 29.3504 97.9509 26.2509 97.8957C24.4518 97.8621 22.6526 97.8285 20.9178 97.3008C18.7306 96.6221 16.5112 96.1904 14.524 95.063C13.5156 94.4686 12.4166 93.8439 11.5761 93.0477C10.0903 91.6237 8.41866 90.7563 6.36473 90.4314C5.45862 90.2835 4.52517 89.7657 3.72746 89.2931C2.975 88.8357 2.70959 87.9738 2.8526 87.0936C2.96464 86.3061 3.64817 85.9157 4.33048 85.6795C4.43645 85.6633 4.51267 85.5857 4.61865 85.5695C6.23926 85.2342 7.20031 84.1631 7.93757 82.708C8.65935 81.2992 9.47161 79.9207 10.3136 78.6037C12.2728 75.5975 15.0998 73.7575 18.2709 72.3932C21.9278 70.7787 25.6585 69.395 29.3749 67.9035C32.8639 66.4907 35.86 64.2947 38.4669 61.6079C41.2869 58.7344 42.6913 55.1306 43.4182 51.1459C43.9401 48.2269 43.3106 45.5938 42 43.0425C40.4811 40.0608 37.8463 38.614 34.8899 37.6785C31.9942 36.7118 28.9865 36.5324 25.8989 36.8935C25.0059 37.0078 24.114 36.9678 23.2222 36.9278C22.1791 36.8889 21.8351 36.4131 22.3413 35.4995C22.9082 34.5546 23.5953 33.7014 24.3873 32.9863C25.7127 31.7276 27.3798 31.2531 29.0766 30.8401C33.3038 29.7769 37.3057 30.4428 41.2241 32.1119C46.4688 34.3269 50.1428 38.2343 52.4306 43.4318C55.0755 49.367 54.8151 55.5696 53.2389 61.7969C53.0983 62.3686 52.8517 62.9564 52.6504 63.5594C52.6647 63.6673 52.7551 63.6974 52.8301 63.774Z" fill="#FDFD7E"/>
<path d="M53.5714 67.5787C54.1598 65.8161 54.8078 64.1765 55.2593 62.5229C56.739 57.0367 57.0851 51.4814 55.601 45.9853C55.5272 45.7544 55.6356 45.4297 55.7583 45.2129C59.0824 39.7754 62.3314 34.2614 64.9935 28.3966C66.2549 25.673 67.29 22.8738 68.4609 20.12C70.263 15.9272 72.0652 11.7344 74.8008 8.05951C76.2525 6.1212 77.8388 4.38246 80.0691 3.42584C84.2869 1.63771 87.1647 2.95938 89.0537 6.94106C90.1691 9.32403 90.7688 11.8957 91.0054 14.5008C91.6544 22.3474 90.521 29.9598 87.9527 37.3509C86.266 42.2524 84.3375 47.1247 81.8971 51.7231C80.7156 53.9063 79.4138 55.9978 78.1121 58.0893C77.9739 58.3525 77.5941 58.5865 77.2916 58.5886C71.2534 59.2019 65.5389 60.9543 60.1482 63.8458C57.9154 65.111 55.8041 66.3135 53.5714 67.5787ZM78.9905 27.1412C78.7072 26.6342 78.5144 26.1573 78.2453 25.7582C77.9763 25.3591 77.662 24.9448 77.2715 24.6082C75.0332 22.7267 72.2387 22.3608 69.6819 24.4457C66.5928 26.92 65.1302 30.2466 64.4057 33.9228C64.1698 35.0813 64.2803 36.4071 64.5588 37.5311C65.1871 40.3186 67.6385 42.0134 70.3034 41.5628C71.3179 41.3859 72.2741 40.9319 73.2446 40.5857C73.2446 40.5857 73.2743 40.6472 73.2886 40.7551C74.6323 44.864 78.5878 45.669 81.8554 43.5637C83.588 42.4409 84.7349 40.8132 85.5508 38.972C86.6895 36.4651 87.602 33.8828 87.2916 31.0468C87.093 29.3824 86.3633 27.953 85.0096 27.0371C83.1141 25.7856 81.0423 25.8156 78.9905 27.1412ZM67.9909 51.0498C69.8614 51.6228 71.632 51.4406 73.392 50.6878C73.9683 50.4678 74.2744 50.0029 74.1435 49.3406C73.9817 48.771 73.4697 48.497 72.7576 48.6717C72.4849 48.7353 72.1968 48.8453 71.9086 48.9553C69.5592 49.666 67.1743 49.1275 66.2126 46.4349C65.9162 45.6658 64.9041 45.5341 64.5814 46.1996C64.3967 46.602 64.3621 47.1575 64.5252 47.5728C65.1167 49.2654 66.3478 50.3981 67.9909 51.0498Z" fill="white"/>
<path d="M78.9905 27.1412C81.0578 25.7692 83.114 25.7856 85.0999 27.0673C86.4536 27.9833 87.1833 29.4126 87.3819 31.0771C87.6923 33.913 86.7798 36.4954 85.6412 39.0022C84.78 40.8284 83.6784 42.4712 81.9457 43.5939C78.6781 45.6993 74.7227 44.8942 73.3789 40.7853C73.3647 40.6774 73.2897 40.6008 73.3349 40.616C72.3192 40.947 71.363 41.4011 70.3937 41.593C67.6836 42.0286 65.2774 40.3488 64.6491 37.5614C64.3861 36.3909 64.2601 35.1116 64.496 33.9531C65.2205 30.2769 66.6832 26.9503 69.7115 24.5073C72.3135 22.4375 75.108 22.8034 77.3011 24.6697C77.6916 25.0063 78.0059 25.4206 78.2749 25.8197C78.4987 26.2038 78.7072 26.6342 78.9905 27.1412ZM71.9897 38.6202C71.7182 38.5296 71.6277 38.4994 71.5372 38.4692C69.6667 37.8962 68.7251 36.4992 69.073 34.5532C69.4365 32.5609 70.2679 30.6732 71.641 29.1211C72.9986 27.6153 75.0871 27.3847 76.7266 28.4991C76.8171 28.5293 76.9076 28.5595 76.9981 28.5897C76.7175 25.8153 73.5075 24.4343 71.2866 26.1158C68.1678 28.5286 66.7503 31.8703 66.508 35.759C66.4364 37.1786 67.0316 38.4084 68.3115 39.0935C69.5164 39.702 70.6691 39.2619 71.9897 38.6202ZM80.7053 41.7363C78.2025 40.7976 77.3513 39.4308 77.8827 37.2368C78.289 35.568 78.9512 34.0363 79.96 32.6718C80.8615 31.4778 82.0606 30.8986 83.4824 30.8578C84.042 30.8384 84.6147 31.0812 85.1886 31.1697C85.0389 29.0575 82.9588 28.2084 81.5049 28.4963C80.3237 28.7206 79.1698 29.3148 78.7517 30.5672C77.8535 33.2574 77.0006 35.9627 75.394 38.3649C75.2868 38.5353 75.2094 38.7672 75.2081 38.9215C75.3032 40.2936 75.7472 41.5244 77.0271 42.2095C78.2927 42.7868 79.4299 42.3931 80.7053 41.7363Z" fill="black"/>
<path d="M67.9909 51.0498C66.3478 50.3981 65.1168 49.2654 64.4348 47.5426C64.2717 47.1273 64.3063 46.5718 64.491 46.1694C64.8292 45.4575 65.8711 45.6507 66.1222 46.4047C67.1291 49.1124 69.4843 49.5894 71.8182 48.9251C72.0909 48.8615 72.3945 48.7051 72.6672 48.6415C73.3793 48.4668 73.8913 48.7408 74.0531 49.3104C74.2292 49.9878 73.8934 50.3912 73.3016 50.6576C71.6321 51.4406 69.8614 51.6228 67.9909 51.0498Z" fill="black"/>
<path d="M71.9447 38.6051C70.6086 39.2932 69.4714 39.6869 68.2665 39.0784C66.9414 38.3782 66.4069 37.1171 66.4631 35.7439C66.6601 31.8401 68.1228 28.5135 71.2416 26.1007C73.4173 24.4041 76.657 25.8466 76.9531 28.5747C76.8626 28.5445 76.7566 28.5606 76.6816 28.484C74.9969 27.3545 72.9084 27.5851 71.596 29.106C70.2229 30.6581 69.407 32.4994 69.028 34.5382C68.6801 36.4841 69.6217 37.8811 71.4923 38.4541C71.5827 38.4843 71.6732 38.5145 71.9447 38.6051Z" fill="white"/>
<path d="M80.7053 41.7363C79.4299 42.3931 78.2774 42.8331 77.088 42.1782C75.8081 41.4931 75.3641 40.2623 75.2691 38.8901C75.2703 38.7359 75.3477 38.504 75.4549 38.3335C77.0615 35.9314 77.9442 33.2876 78.8126 30.5359C79.2153 29.3299 80.3692 28.7356 81.5659 28.465C82.9745 28.162 85.0998 29.0262 85.2496 31.1383C84.6756 31.0498 84.1029 30.8071 83.5433 30.8264C82.1216 30.8673 80.9225 31.4465 80.0209 32.6405C79.0122 34.005 78.3345 35.5831 77.9437 37.2054C77.3218 39.3693 78.2025 40.7976 80.7053 41.7363Z" fill="white"/>
</svg>
