<svg width="110" height="116" viewBox="0 0 110 116" fill="none" xmlns="http://www.w3.org/2000/svg">
<path d="M109.6 86.9502C110.15 90.9502 109.6 94.8002 108.15 98.6002C106.75 102.25 104.4 105.3 101.65 108C98.9003 110.65 95.6503 112.45 92.1503 113.8C89.8003 114.65 87.3003 115.1 84.8003 115.5C80.7003 116.15 76.6003 115.85 72.6003 114.6C69.4003 113.6 66.4503 112.1 63.7503 110.1C62.8003 109.4 61.8503 108.65 60.9003 107.95C59.5003 109 58.2003 110.1 56.8003 111.05C53.8503 113.05 50.6003 114.2 47.1003 114.75C38.1003 116.15 30.0003 114.1 22.9003 108.35C20.3003 106.25 18.0503 103.8 16.5003 100.8C16.2503 100.3 15.9003 100.15 15.3503 100.15C12.7003 100.1 9.95029 100.15 7.35029 99.8502C0.10029 98.9502 -1.44971 91.6502 1.95029 86.8002C2.65029 85.8002 3.60029 85.0502 4.80029 84.7502C5.25029 84.6502 5.40029 84.4002 5.45029 83.9502C5.55029 82.8002 5.65029 81.6502 5.85029 80.5502C6.30029 78.5002 8.30029 77.2502 10.3503 77.7502C11.2503 77.9502 11.9003 78.5002 12.2003 79.3502C12.5003 80.2502 12.7003 81.2002 12.9003 82.1502C13.0503 82.9502 13.1503 83.7002 14.2003 83.9502C14.4503 83.3502 14.7503 82.8002 14.9503 82.2002C17.2503 75.0002 22.2003 70.2502 29.0003 67.4002C32.8503 65.7502 36.9503 65.7002 41.0503 66.8002C42.0003 67.0502 42.9003 67.3502 43.8003 67.7502C44.2503 67.9002 44.4503 67.8502 44.7503 67.5002C48.7003 63.1502 52.0503 58.3002 55.1003 53.3002C57.7503 49.0002 59.9003 44.4002 61.9503 39.8002C64.0503 35.0002 65.2003 29.9502 66.8503 25.0502C68.9003 19.0002 71.7503 13.4002 76.8503 9.10017C81.0503 5.55017 85.6003 2.95016 90.8503 1.60016C93.2503 1.00016 95.7503 0.850165 98.2503 0.650165C100.3 0.450165 102.4 0.400165 104.5 0.350165C105.5 0.300165 106.5 0.400165 107.5 0.550165C108.6 0.750165 109.05 1.30016 108.75 2.40016C108.1 4.80016 107.45 7.20017 106.45 9.50016C104.75 13.3502 102.65 17.0502 100.1 20.4002C97.5003 23.8002 94.3503 26.6002 90.4003 28.3502C88.8503 29.0502 87.3003 29.7002 85.6503 30.2002C83.1003 31.0002 80.5003 30.9502 77.8503 30.9002C77.8503 30.9502 77.8503 31.0502 77.8503 31.1002C80.2503 33.8002 81.6503 37.0502 83.0003 40.3502C84.6503 44.4002 85.7503 48.6002 86.6003 52.9002C87.7003 58.4002 88.2503 63.9502 88.2503 69.6002C88.2503 69.7502 88.3003 69.8502 88.3003 70.0502C89.1003 70.0002 89.9003 69.9002 90.6503 69.8502C95.6503 69.5002 99.9503 71.2502 103.65 74.5502C104.65 75.4502 105.55 76.4502 106.4 77.5002C108.6 80.1002 109.15 83.5502 109.6 86.9502ZM105.6 98.5502C107.65 93.7502 108 88.8002 106.7 83.7502C105.4 78.4502 101.8 75.0502 96.9003 72.9502C94.4003 71.9002 91.8503 71.6002 89.2003 72.0002C88.8003 72.0502 88.1503 72.3002 88.1003 72.6002C87.8003 73.9002 87.6503 75.3002 87.4503 76.8002C88.4503 76.4002 89.3503 76.1002 90.2503 75.7502C91.1503 75.4002 91.8503 75.5502 92.1503 76.2002C92.4503 76.8502 92.1503 77.5002 91.3003 77.9002C88.3503 79.2502 85.3003 79.9002 82.0503 79.1502C80.1003 78.7002 78.3003 77.8502 77.1003 76.1502C76.6503 75.5002 76.7503 74.8502 77.2503 74.5002C77.7503 74.1502 78.3003 74.3502 78.8503 74.9002C79.4503 75.5002 80.2003 76.0002 81.0003 76.6502C81.3003 75.1502 81.5503 73.9502 81.7503 72.7502C81.8503 72.2002 81.7003 71.8502 81.2003 71.5502C79.1503 70.4502 76.9503 69.7502 74.6003 69.8002C71.9003 69.8502 69.2503 70.3502 66.8003 71.7002C64.1003 73.2002 61.6503 75.0002 59.8003 77.4002C57.6003 80.2502 56.2003 83.6002 55.7003 87.1502C55.4503 89.1502 55.5003 91.2002 55.6503 93.2002C55.7503 94.6002 55.9003 96.1002 56.4503 97.4002C58.2503 101.65 61.0503 105.1 64.7503 107.85C70.2503 111.9 76.3503 113.95 83.2003 113.25C85.9503 113 88.7003 112.6 91.2503 111.55C94.5503 110.2 97.7003 108.6 100.2 106C102.45 103.75 104.4 101.4 105.6 98.5502ZM105.1 6.55017C105.65 5.30017 106 4.00016 106.45 2.65016C105.25 2.65016 104.2 2.60016 103.15 2.65016C99.5503 2.80016 95.9503 2.75016 92.4003 3.50016C85.2503 5.10016 79.4503 8.90017 74.8003 14.4502C71.2503 18.7002 69.4003 23.9002 67.9003 29.1502C66.9003 32.7502 66.0503 36.4002 64.4503 39.8002C63.2003 42.4502 62.1003 45.1502 60.7503 47.7502C59.4003 50.4002 57.9003 53.0502 56.3503 55.6002C55.2003 57.5502 54.0003 59.4502 52.6503 61.2002C50.2503 64.3002 47.8003 67.3502 45.2503 70.3002C44.0503 71.7002 42.5503 72.9002 41.1003 74.3002C41.9503 74.5002 42.7003 74.7502 43.4503 74.9002C43.6003 74.9502 43.8503 74.8002 44.0003 74.6502C45.2503 73.4502 46.6503 72.3002 47.7503 70.9502C50.0003 68.1502 52.1003 65.3002 54.2003 62.4002C55.1003 61.2002 56.0003 59.9502 56.7503 58.6002C59.4003 53.9002 62.0003 49.2002 64.5503 44.4502C66.5003 40.8002 68.0503 36.9002 69.3003 32.9502C69.6003 31.9502 69.9503 30.9502 70.4003 30.0002C70.8003 29.2002 71.8003 29.1502 72.3503 29.8502C73.1003 30.8002 73.9003 31.7502 74.6503 32.7002C78.3003 37.4002 80.3503 42.8502 81.9003 48.5002C83.1503 53.1002 84.1503 57.8002 84.5003 62.6002C84.7003 65.4002 84.8003 68.2002 84.4503 71.0502C84.2003 73.0002 83.9003 74.9502 83.6003 76.9002C84.7503 77.2002 84.9003 77.2002 85.0503 76.0502C85.4003 73.5502 85.8503 71.0502 85.8503 68.6002C85.9003 64.2002 85.5003 59.8502 84.7503 55.5002C83.7003 49.4002 82.0503 43.4002 79.4503 37.7502C78.5503 35.7502 77.5003 33.9002 76.1003 32.2002C75.3503 31.3002 74.6003 30.4502 73.8503 29.5502C73.5003 29.1002 73.4003 28.6002 73.7503 28.1502C74.1503 27.7002 74.6003 27.7002 75.1503 27.9002C75.7003 28.1002 76.3503 28.1502 76.9503 28.2502C77.4503 28.3002 78.0003 28.3002 78.5003 28.2502C80.3503 28.2002 82.2003 28.3502 84.0003 27.9502C88.7503 26.9502 92.8503 24.6002 96.2003 21.1002C100.1 16.9002 102.75 11.8002 105.1 6.55017ZM82.0003 69.3002C82.0003 67.1502 82.1503 65.1002 81.9503 63.0502C81.2503 54.5002 79.2003 46.2502 75.5003 38.5002C74.5503 36.5502 73.3503 34.8002 71.9003 33.0002C67.3003 46.0502 60.5503 57.7502 52.5503 68.9002C56.1003 68.9502 59.1503 69.7002 61.7003 72.0502C68.0003 67.2502 74.6503 65.7002 82.0003 69.3002ZM53.7503 84.4002C55.0003 80.4002 56.7503 76.6502 59.8503 73.7002C57.8003 71.8502 55.3503 71.2002 52.7503 71.2502C51.9003 71.2502 50.9003 71.3502 50.2503 71.8002C49.2003 72.6002 48.3503 73.7002 47.4503 74.6502C48.1003 74.5002 48.6503 74.2002 49.2503 73.9502C49.9003 73.6502 50.6003 73.8502 50.9003 74.4002C51.2003 74.9502 51.0503 75.7002 50.4003 76.0002C49.1503 76.6002 47.8503 77.3502 46.5003 77.5002C42.8003 77.8502 39.5503 76.5502 36.7503 74.1002C36.3503 73.7502 35.9503 73.3002 35.6503 72.8002C35.3003 72.2502 35.3503 71.7002 35.9503 71.3002C36.5003 70.9502 37.0003 71.1502 37.4003 71.6002C37.5503 71.7502 37.6503 71.9502 37.8003 72.1002C38.5503 73.0002 38.8503 73.1002 39.8003 72.3502C40.7503 71.6002 41.6003 70.7502 42.6503 69.8002C40.5003 68.9502 38.4003 68.5502 36.3003 68.4502C32.4503 68.3002 28.9503 69.5502 25.7503 71.6502C20.7003 75.0002 17.5003 79.7002 16.1003 85.5502C15.7003 87.2502 15.4503 89.0502 15.6503 90.7502C16.2503 95.9502 18.2003 100.5 22.0003 104.25C25.2003 107.45 28.8503 109.8 33.1003 111.2C39.2003 113.2 45.3503 113.2 51.4003 110.95C54.3503 109.85 56.9003 108.1 59.1003 105.95C57.9003 104.25 56.6503 102.6 55.5503 100.85C55.1503 100.2 54.7003 100.05 54.0003 100.05C51.9503 100.1 49.9503 100.1 47.9003 100.05C46.4003 100 44.9003 99.6502 43.5503 98.8502C41.0003 97.2502 40.1003 94.7502 40.1503 91.9002C40.2503 88.7502 41.5003 86.2502 44.8003 85.1002C45.0003 85.0502 45.2003 84.6502 45.2503 84.4002C45.5503 83.1002 45.6503 81.8002 46.1003 80.5502C46.7003 78.9002 47.9503 78.2502 49.6003 78.4502C51.0003 78.6002 52.2003 79.7002 52.5003 81.2002C52.6503 81.8502 52.6003 82.5002 52.7503 83.1502C52.8503 83.6002 53.1003 84.0502 53.3003 84.5002C53.6003 84.4502 53.7003 84.4502 53.7503 84.4002ZM49.5503 97.7002H53.9503C53.7003 95.8502 53.3003 94.0502 53.2003 92.2502C53.0503 90.4502 53.1503 88.6002 53.1503 86.6002C51.5003 86.0502 50.8503 84.7502 50.7003 83.0502C50.6503 82.6002 50.6003 82.1502 50.5003 81.7002C50.4003 81.1002 50.0003 80.8002 49.4003 80.8002C48.8503 80.7502 48.5003 81.0502 48.4003 81.5502C48.2003 82.5002 48.0003 83.5002 47.8003 84.5002C47.7003 84.9502 47.8503 85.2502 48.3003 85.4502C50.0003 86.2002 50.9003 87.6502 51.2503 89.3502C51.7003 91.6502 51.5003 93.9002 50.4503 96.0002C50.2003 96.5502 49.9003 97.1002 49.5503 97.7002ZM48.1503 93.0502C48.9003 93.1502 49.3003 92.8502 49.1003 92.0002C48.2003 91.8502 47.3503 91.7502 46.4503 91.6002C45.8503 91.5002 45.5503 91.1002 45.6003 90.5002C45.6503 89.9002 46.0503 89.6002 46.6503 89.5502C47.0503 89.5002 47.4503 89.6002 47.8503 89.6002C48.2503 89.6002 48.6003 89.6002 49.0003 89.6002C48.6503 88.1502 47.7003 87.3502 46.3503 87.3002C45.0503 87.3002 43.7003 88.2002 43.2003 89.3502C42.1003 92.0502 42.6503 95.0502 44.5503 96.4502C45.8003 97.4002 47.4503 96.8002 47.9503 95.1502C47.4003 95.0502 46.8503 94.9502 46.3003 94.9002C45.6503 94.8002 45.1503 94.5002 45.2003 93.7502C45.2503 93.0002 45.8003 92.7502 46.4503 92.7502C47.1003 92.9002 47.6003 93.0002 48.1503 93.0502ZM10.5503 97.6002H14.7503C13.7003 93.8502 13.0003 90.1502 13.4503 86.3002C11.1503 85.1502 10.7503 84.6002 10.4503 82.1002C10.4003 81.6002 10.3003 81.1502 10.1503 80.6502C9.90029 79.8002 9.20029 79.6002 8.55029 80.2002C8.25029 80.4502 8.00029 80.9002 7.95029 81.3002C7.75029 82.1502 7.70029 83.0002 7.55029 83.8502C7.45029 84.4002 7.65029 84.6002 8.15029 84.7502C9.65029 85.2002 10.9503 86.0502 11.4003 87.5502C12.4003 90.5502 12.6503 93.6002 11.0503 96.5002C10.9503 96.8502 10.8003 97.1502 10.5503 97.6002ZM8.70029 93.0502C10.0003 93.0502 10.0003 93.0502 9.85029 91.6502C8.95029 91.6002 8.05029 91.5502 7.15029 91.4502C6.55029 91.4002 6.05029 91.1502 5.95029 90.5002C5.85029 89.8502 6.35029 89.3502 7.20029 89.3002C8.00029 89.3002 8.85029 89.3002 9.85029 89.3002C9.55029 88.7502 9.45029 88.1002 9.05029 87.8002C7.75029 86.7502 5.65029 86.2002 4.20029 87.7502C2.40029 89.7502 1.55029 93.9002 4.80029 96.4002C6.45029 97.6502 8.30029 97.2002 9.00029 95.2502C8.60029 95.2502 8.20029 95.2502 7.85029 95.2502C7.35029 95.2502 6.85029 95.2502 6.40029 95.1502C5.80029 95.0002 5.40029 94.6002 5.50029 93.9002C5.60029 93.2002 6.10029 93.0002 6.75029 93.0502C7.40029 93.0502 8.05029 93.1002 8.70029 93.0502Z" fill="black"/>
<path d="M106.75 83.7501C108 88.8001 107.65 93.7501 105.65 98.5501C104.45 101.4 102.45 103.75 100.35 105.95C97.8003 108.55 94.6503 110.15 91.4003 111.5C88.8503 112.55 86.1003 112.95 83.3503 113.2C76.4503 113.85 70.4003 111.85 64.9003 107.8C61.1503 105.05 58.3503 101.6 56.6003 97.3501C56.0503 96.0501 55.9003 94.6001 55.8003 93.1501C55.7003 91.1501 55.6003 89.1001 55.8503 87.1001C56.3003 83.5001 57.7503 80.2001 59.9503 77.3501C61.8003 74.9001 64.2503 73.1501 66.9503 71.6501C69.4003 70.3001 72.0003 69.8001 74.7503 69.7501C77.1003 69.7001 79.3003 70.4001 81.3503 71.5001C81.8503 71.8001 82.0503 72.1501 81.9003 72.7001C81.6503 73.9001 81.4503 75.1001 81.1503 76.6001C80.3503 75.9501 79.6003 75.4501 79.0003 74.8501C78.4503 74.3001 77.9003 74.1001 77.4003 74.4501C76.9003 74.8001 76.8003 75.5001 77.2503 76.1001C78.4503 77.8001 80.2503 78.6501 82.2003 79.1001C85.4003 79.8501 88.5003 79.2001 91.4503 77.8501C92.3003 77.4501 92.5503 76.8001 92.3003 76.1501C92.0003 75.5001 91.3003 75.3501 90.4003 75.7001C89.5003 76.0501 88.6003 76.4001 87.6003 76.7501C87.8003 75.2501 87.9503 73.9001 88.2503 72.5501C88.3003 72.3001 88.9503 72.0501 89.3503 71.9501C92.0003 71.5501 94.6003 71.8501 97.0503 72.9001C101.85 75.0501 105.45 78.4501 106.75 83.7501ZM76.8003 87.6001C76.8003 86.5501 76.2503 85.9501 75.2503 85.9001C74.3503 85.8501 73.5503 86.6001 73.5503 87.4501C73.5503 88.3001 74.3503 89.1001 75.2003 89.1001C76.1003 89.2001 76.7503 88.5501 76.8003 87.6001ZM75.2503 94.2501C75.7503 93.7501 75.8003 93.1501 75.3003 92.5501C74.9003 92.1001 74.2003 92.1001 73.6003 92.5501C73.2503 92.8001 72.9503 93.1501 72.6503 93.4001C71.6503 94.2501 70.4503 94.5501 69.1503 94.3501C67.8503 94.1501 67.0003 93.4001 66.4003 92.3001C66.1003 91.7501 65.6503 91.5001 65.0503 91.7501C64.4503 92.0001 64.3003 92.5501 64.4503 93.1501C64.5003 93.4001 64.6003 93.6001 64.7503 93.8001C66.0003 95.7001 67.7503 96.7501 70.0503 96.6001C72.2003 96.7501 73.9003 95.7501 75.2503 94.2501ZM65.9003 88.3501C66.7003 88.3501 67.5503 87.4501 67.5503 86.6501C67.5503 85.8501 66.8003 85.1001 65.9503 85.1001C65.1003 85.1001 64.4503 85.8001 64.4003 86.6501C64.4003 87.6001 65.0503 88.3501 65.9003 88.3501Z" fill="#FDFD7E"/>
<path d="M106.45 2.6001C106 3.9501 105.65 5.3001 105.1 6.5001C102.75 11.7501 100.1 16.8501 96.1002 21.0501C92.7502 24.6001 88.6502 26.9001 83.9002 27.9001C82.1502 28.2501 80.2502 28.1001 78.4002 28.2001C77.9002 28.2001 77.3502 28.2501 76.8502 28.2001C76.2502 28.1501 75.6502 28.0501 75.0502 27.8501C74.5002 27.6501 74.0502 27.6501 73.6502 28.1001C73.3002 28.5501 73.3502 29.0501 73.7502 29.5001C74.5002 30.4001 75.2502 31.2501 76.0002 32.1501C77.4002 33.8001 78.4502 35.7001 79.3502 37.7001C81.9502 43.3501 83.6002 49.3501 84.6502 55.4501C85.4002 59.7501 85.8502 64.1501 85.7502 68.5501C85.7002 71.0501 85.3002 73.5501 84.9502 76.0001C84.8002 77.1501 84.6502 77.1501 83.5002 76.8501C83.8002 74.9001 84.1002 72.9501 84.3502 71.0001C84.7502 68.2001 84.6502 65.4001 84.4002 62.5501C84.0502 57.7501 83.1002 53.0501 81.8002 48.4501C80.2502 42.8001 78.2002 37.3501 74.5502 32.6501C73.8002 31.7001 73.0502 30.7501 72.2502 29.8001C71.7002 29.1001 70.7002 29.1001 70.3002 29.9501C69.8502 30.9001 69.5002 31.9001 69.2002 32.9001C67.9502 36.9001 66.4002 40.7501 64.4502 44.4001C61.9502 49.1501 59.3002 53.8501 56.6502 58.5501C55.9002 59.8501 55.0002 61.1001 54.1002 62.3501C52.0002 65.2501 49.9002 68.1001 47.6502 70.9001C46.5502 72.2501 45.2002 73.4001 43.9002 74.6001C43.7502 74.7501 43.5002 74.8501 43.3502 74.8501C42.6002 74.7001 41.8502 74.5001 41.0002 74.2501C42.5002 72.8001 43.9502 71.6501 45.1502 70.2501C47.7002 67.3001 50.2002 64.2501 52.5502 61.1501C53.9002 59.3501 55.1002 57.4501 56.2502 55.5501C57.8002 52.9501 59.3002 50.3501 60.6502 47.7001C61.9502 45.1001 63.1002 42.4001 64.3502 39.7501C65.9502 36.3501 66.8002 32.7001 67.8002 29.1001C69.3002 23.8001 71.1502 18.6501 74.7002 14.4001C79.3502 8.8501 85.1502 5.0501 92.3002 3.4501C95.8502 2.6501 99.4502 2.7001 103.05 2.6001C104.2 2.6001 105.25 2.6001 106.45 2.6001ZM98.6002 9.6001C98.7502 9.2001 98.9502 8.6001 98.8002 8.3001C98.6002 7.9501 98.0002 7.8001 97.5502 7.7501C97.3002 7.7001 96.9502 7.9501 96.7002 8.1501C93.9502 9.8001 91.2002 11.4001 88.5002 13.1001C86.3502 14.4001 84.2502 15.8001 82.1502 17.2001C80.0002 18.6501 77.9502 20.1501 75.8502 21.6501C75.6002 21.8501 75.3502 22.0501 75.2002 22.3501C74.8002 23.1001 75.3002 23.9001 76.3002 23.8501C76.4502 23.7501 76.8002 23.6501 77.1002 23.4501C79.3502 21.9501 81.5502 20.3501 83.8502 18.9501C88.5502 16.0001 93.3002 13.1501 98.0002 10.2501C98.1502 10.0001 98.5002 9.8501 98.6002 9.6001Z" fill="#5358F6"/>
<path d="M98.7502 8.30009C98.9502 8.60009 98.7502 9.20009 98.5502 9.60009C98.4502 9.85009 98.1002 10.0001 97.8502 10.1501C93.1502 13.0501 88.4002 15.9001 83.7002 18.8501C81.4002 20.3001 79.2002 21.8501 76.9502 23.3501C76.6502 23.5501 76.3502 23.6501 76.1502 23.7501C75.1502 23.8001 74.6502 22.9501 75.0502 22.2501C75.2002 22.0001 75.4502 21.7501 75.7002 21.5501C77.8002 20.0501 79.8502 18.5501 82.0002 17.1001C84.1002 15.7001 86.2002 14.3501 88.3502 13.0001C91.0502 11.3501 93.8002 9.70009 96.5502 8.05009C96.8502 7.90009 97.1502 7.60009 97.4002 7.65009C97.9502 7.80009 98.5502 7.95009 98.7502 8.30009Z" fill="black"/>
<path d="M75.2503 85.9501C76.2503 86.0001 76.8003 86.6001 76.8003 87.6501C76.8003 88.6001 76.1003 89.2501 75.2003 89.2001C74.3003 89.1501 73.5503 88.4001 73.5503 87.5501C73.5503 86.6501 74.3503 85.9001 75.2503 85.9501Z" fill="black"/>
<path d="M75.3003 92.6002C75.8003 93.1502 75.7503 93.7502 75.2503 94.3002C73.8503 95.8002 72.2003 96.8002 70.0503 96.7502C67.7503 96.8502 66.0503 95.8002 64.7503 93.9502C64.6003 93.7502 64.5003 93.5002 64.4503 93.3002C64.3003 92.7002 64.4503 92.1502 65.0503 91.9002C65.6503 91.6502 66.1003 91.9502 66.4003 92.4502C67.0003 93.5502 67.9003 94.3002 69.1503 94.5002C70.4503 94.7002 71.6003 94.4002 72.6503 93.5502C73.0003 93.2502 73.3003 92.9502 73.6003 92.7002C74.2503 92.1002 74.9003 92.1002 75.3003 92.6002Z" fill="black"/>
<path d="M67.5502 86.6002C67.5502 87.4002 66.7002 88.3002 65.9002 88.3002C65.0502 88.3002 64.4002 87.6002 64.4502 86.6002C64.4502 85.7002 65.1502 85.0502 66.0002 85.0502C66.8002 85.0502 67.5502 85.8002 67.5502 86.6002Z" fill="black"/>
<path d="M59.9002 73.7001C56.8002 76.7001 55.0502 80.4001 53.8002 84.4001C53.7002 84.4501 53.6502 84.4501 53.5502 84.5001C53.3502 84.0501 53.1002 83.6001 53.0002 83.1501C52.8502 82.5001 52.8502 81.8501 52.7502 81.2001C52.4002 79.7001 51.2002 78.6001 49.8502 78.4501C48.1502 78.3001 46.9002 78.9001 46.3502 80.5501C45.9002 81.8001 45.8002 83.1001 45.5002 84.4001C45.4502 84.6501 45.2502 85.0501 45.0502 85.1001C41.7502 86.2501 40.5002 88.7501 40.4002 91.9001C40.3002 94.7501 41.2502 97.2501 43.8002 98.8501C45.1002 99.7001 46.6002 100 48.1502 100.05C50.2002 100.1 52.2002 100.1 54.2502 100.05C54.9502 100.05 55.4002 100.2 55.8002 100.85C56.9002 102.6 58.1502 104.25 59.3502 105.95C57.1502 108.1 54.6002 109.85 51.6502 110.95C45.6002 113.2 39.4502 113.2 33.3502 111.2C29.1002 109.8 25.4502 107.4 22.2502 104.25C18.4502 100.5 16.5002 95.9501 15.9002 90.7501C15.7002 89.0501 15.9502 87.2001 16.3502 85.5501C17.7002 79.6501 20.9002 75.0001 26.0002 71.6501C29.2002 69.5501 32.6502 68.3001 36.5502 68.4501C38.6502 68.5001 40.7502 68.9001 42.9002 69.8001C41.8502 70.7501 41.0002 71.6001 40.0502 72.3501C39.1002 73.1001 38.8002 73.0001 38.0502 72.1001C37.9002 71.9501 37.8002 71.7501 37.6502 71.6001C37.2502 71.1501 36.7502 70.9501 36.2002 71.3001C35.6002 71.6501 35.5502 72.2501 35.9002 72.8001C36.2002 73.3001 36.5502 73.7501 37.0002 74.1001C39.8002 76.5501 43.0502 77.8501 46.7502 77.5001C48.1002 77.3501 49.4002 76.6001 50.6502 76.0001C51.3002 75.7001 51.4502 74.9501 51.1502 74.4001C50.8502 73.8501 50.2002 73.6501 49.5002 73.9501C48.9002 74.2001 48.3502 74.5001 47.7002 74.6501C48.6002 73.7001 49.4502 72.5501 50.5002 71.8001C51.1502 71.3501 52.1502 71.2501 53.0002 71.2501C55.4002 71.2001 57.8502 71.8001 59.9002 73.7001ZM33.4502 87.3501C34.2502 87.3501 34.9002 86.7001 34.9002 85.9001C34.8502 85.1001 34.2002 84.4501 33.4502 84.4501C32.7502 84.5001 32.1002 85.1501 32.1002 85.9001C32.0502 86.7001 32.6502 87.3501 33.4502 87.3501ZM33.4502 93.3001C33.8002 92.8001 33.8502 92.2501 33.4002 91.8001C32.9502 91.3501 32.3502 91.3501 31.8502 91.7501C31.7002 91.8501 31.5502 92.0501 31.4002 92.2001C29.3502 94.1001 26.6502 93.8001 25.1502 91.5001C24.8002 91.0001 24.3002 90.7501 23.8502 91.0501C23.5002 91.2501 23.2502 91.8501 23.2502 92.2001C23.2502 92.6501 23.6002 93.1501 23.8502 93.5501C25.0002 95.1001 26.6502 95.5501 28.7002 95.7001C29.1502 95.6001 29.9002 95.5501 30.5502 95.3001C31.6502 94.9501 32.7502 94.3501 33.4502 93.3001ZM24.5502 87.1001C25.3502 86.9501 25.9002 86.1001 25.7002 85.2501C25.5502 84.5001 24.8002 84.0501 24.0502 84.2001C23.2502 84.3501 22.8002 85.1001 23.0002 86.0001C23.1502 86.8001 23.8002 87.2001 24.5502 87.1001Z" fill="#FDFD7E"/>
<path d="M53.9503 97.7002H49.5503C49.8503 97.1002 50.1504 96.5502 50.4504 95.9502C51.5004 93.8502 51.7504 91.6002 51.2504 89.3002C50.9004 87.5502 50.0004 86.1502 48.3004 85.4002C47.8504 85.2002 47.7004 84.9502 47.8004 84.4502C48.0004 83.5002 48.2004 82.5002 48.4004 81.5002C48.5004 81.0002 48.8504 80.7002 49.4004 80.7502C50.0004 80.8002 50.3504 81.1002 50.5004 81.6502C50.6004 82.1002 50.6504 82.5502 50.7004 83.0002C50.8504 84.7002 51.5504 86.0002 53.1504 86.5502C53.1504 88.5002 53.0504 90.3502 53.2004 92.2002C53.3004 94.0502 53.6503 95.8502 53.9503 97.7002Z" fill="white"/>
<path d="M49.1002 92.0502C49.2502 92.8502 48.9002 93.1502 48.1502 93.1002C47.6002 93.0502 47.1002 92.9501 46.5502 92.9501C45.9002 92.9501 45.3502 93.2001 45.3002 93.9501C45.2502 94.7001 45.7502 95.0002 46.4002 95.1002C46.9502 95.2002 47.5002 95.3002 48.0502 95.3502C47.5502 97.0002 45.9002 97.6002 44.6502 96.6502C42.7502 95.2502 42.1502 92.2502 43.3002 89.5502C43.8002 88.3502 45.1502 87.4502 46.4502 87.5002C47.8002 87.5002 48.7502 88.3002 49.1002 89.8002C48.7002 89.8002 48.3002 89.8002 47.9502 89.8002C47.5502 89.8002 47.1502 89.7002 46.7502 89.7502C46.1502 89.8002 45.7502 90.1001 45.7002 90.7001C45.6502 91.3001 46.0002 91.7002 46.5502 91.8002C47.3502 91.8002 48.2502 91.9002 49.1002 92.0502Z" fill="white"/>
<path d="M34.8502 85.9001C34.9002 86.6501 34.2002 87.3501 33.4002 87.3501C32.6502 87.3501 32.0002 86.7501 32.0002 85.9501C32.0002 85.2001 32.6502 84.5001 33.3502 84.5001C34.1502 84.4501 34.8502 85.1501 34.8502 85.9001Z" fill="black"/>
<path d="M33.4002 91.8501C33.8502 92.3001 33.8002 92.8501 33.4502 93.3501C32.7502 94.4001 31.6502 94.9501 30.5002 95.4001C29.8502 95.6501 29.1502 95.7001 28.6502 95.8001C26.6002 95.6501 24.9502 95.2001 23.8002 93.6501C23.5002 93.2501 23.2002 92.7501 23.2002 92.3001C23.2002 91.9001 23.4502 91.3501 23.8002 91.1501C24.2502 90.8501 24.8002 91.1001 25.1002 91.6001C26.6002 93.9001 29.3002 94.2001 31.3502 92.3001C31.5002 92.1501 31.6502 92.0001 31.8002 91.8501C32.3502 91.4001 32.9002 91.3501 33.4002 91.8501Z" fill="black"/>
<path d="M25.7002 85.2501C25.9002 86.1001 25.3502 86.9501 24.5502 87.1001C23.8002 87.2501 23.1502 86.8002 23.0002 86.0502C22.8002 85.1502 23.2502 84.4002 24.0502 84.2502C24.8502 84.0502 25.5502 84.5001 25.7002 85.2501Z" fill="black"/>
<path d="M14.7503 97.6002H10.5503C10.7503 97.2002 10.9502 96.8502 11.1502 96.5002C12.7502 93.5502 12.5002 90.5502 11.5002 87.5502C11.0002 86.0502 9.75024 85.2002 8.25024 84.7502C7.75024 84.6002 7.55024 84.3502 7.65024 83.8502C7.80024 83.0002 7.85024 82.1502 8.05024 81.3002C8.15024 80.9002 8.35024 80.5002 8.65024 80.2002C9.30024 79.6002 10.0002 79.8502 10.2502 80.6502C10.4002 81.1002 10.4502 81.6002 10.5502 82.1002C10.8502 84.6002 11.2502 85.2002 13.5502 86.3002C13.0002 90.1002 13.7503 93.8502 14.7503 97.6002Z" fill="white"/>
<path d="M9.85029 91.6502C10.0003 93.0502 10.0003 93.0502 8.70029 93.0502C8.05029 93.0502 7.40013 93.0501 6.75013 93.0001C6.10013 92.9501 5.60013 93.1501 5.50013 93.8501C5.40013 94.5501 5.80013 94.9501 6.40013 95.1001C6.85013 95.2001 7.35013 95.2001 7.85013 95.2001C8.20013 95.2001 8.60013 95.2001 9.00013 95.2001C8.30013 97.1501 6.45013 97.6001 4.80013 96.3501C1.55013 93.8501 2.40013 89.7001 4.20013 87.7001C5.60013 86.1001 7.75013 86.7001 9.05013 87.7501C9.45013 88.0501 9.55013 88.7001 9.85013 89.2501C8.85013 89.2501 8.00013 89.2501 7.20013 89.2501C6.40013 89.2501 5.90013 89.7501 5.95013 90.4501C6.05013 91.1501 6.55013 91.3501 7.15013 91.4001C8.05013 91.5501 8.95029 91.6002 9.85029 91.6502Z" fill="white"/>
</svg>
