<svg width="588" height="595" viewBox="0 0 588 595" fill="none" xmlns="http://www.w3.org/2000/svg">
<path d="M548.486 437.682C551.074 456.722 548.486 475.048 541.666 493.136C535.08 510.51 524.026 525.028 511.09 537.88C498.154 550.494 482.866 559.062 466.402 565.488C455.347 569.534 443.587 571.676 431.827 573.58C412.541 576.674 393.254 575.246 374.438 569.296C359.386 564.536 345.509 557.396 332.808 547.876C328.339 544.544 323.87 540.974 319.402 537.642C312.816 542.64 306.701 547.876 300.115 552.398C286.238 561.918 270.95 567.392 254.486 570.01C212.15 576.674 174.048 566.916 140.65 539.546C128.419 529.55 117.835 517.888 110.544 503.608C109.368 501.228 107.722 500.514 105.134 500.514C92.6688 500.276 79.7328 500.514 67.5024 499.086C33.3984 494.802 26.1072 460.054 42.1008 436.968C45.3936 432.208 49.8624 428.638 55.5072 427.21C57.624 426.734 58.3296 425.544 58.5648 423.402C59.0352 417.928 59.5056 412.454 60.4464 407.218C62.5632 397.46 71.9712 391.51 81.6144 393.89C85.848 394.842 88.9056 397.46 90.3168 401.506C91.728 405.79 92.6688 410.312 93.6096 414.834C94.3152 418.642 94.7856 422.212 99.7248 423.402C100.901 420.546 102.312 417.928 103.253 415.072C114.072 380.8 137.357 358.19 169.344 344.624C187.454 336.77 206.741 336.532 226.027 341.768C230.496 342.958 234.73 344.386 238.963 346.29C241.08 347.004 242.021 346.766 243.432 345.1C262.013 324.394 277.771 301.308 292.118 277.508C304.584 257.04 314.698 235.144 324.341 213.248C334.219 190.4 339.629 166.362 347.39 143.038C357.034 114.24 370.44 87.5842 394.43 67.1162C414.187 50.2182 435.59 37.8422 460.286 31.4162C471.576 28.5602 483.336 27.8462 495.096 26.8942C504.739 25.9422 514.618 25.7042 524.496 25.4662C529.2 25.2282 533.904 25.7042 538.608 26.4182C543.782 27.3702 545.899 29.9882 544.488 35.2242C541.43 46.6482 538.373 58.0722 533.669 69.0202C525.672 87.3462 515.794 104.958 503.798 120.904C491.568 137.088 476.75 150.416 458.17 158.746C450.878 162.078 443.587 165.172 435.826 167.552C423.83 171.36 411.6 171.122 399.134 170.884C399.134 171.122 399.134 171.598 399.134 171.836C410.424 184.688 417.01 200.158 423.36 215.866C431.122 235.144 436.296 255.136 440.294 275.604C445.469 301.784 448.056 328.202 448.056 355.096C448.056 355.81 448.291 356.286 448.291 357.238C452.054 357 455.818 356.524 459.346 356.286C482.866 354.62 503.093 362.95 520.498 378.658C525.202 382.942 529.435 387.702 533.434 392.7C543.782 405.076 546.37 421.498 548.486 437.682ZM529.67 492.898C539.314 470.05 540.96 446.488 534.845 422.45C528.73 397.222 511.795 381.038 488.746 371.042C476.986 366.044 464.99 364.616 452.525 366.52C450.643 366.758 447.586 367.948 447.35 369.376C445.939 375.564 445.234 382.228 444.293 389.368C448.997 387.464 453.23 386.036 457.464 384.37C461.698 382.704 464.99 383.418 466.402 386.512C467.813 389.606 466.402 392.7 462.403 394.604C448.526 401.03 434.179 404.124 418.891 400.554C409.718 398.412 401.251 394.366 395.606 386.274C393.49 383.18 393.96 380.086 396.312 378.42C398.664 376.754 401.251 377.706 403.838 380.324C406.661 383.18 410.189 385.56 413.952 388.654C415.363 381.514 416.539 375.802 417.48 370.09C417.95 367.472 417.245 365.806 414.893 364.378C405.25 359.142 394.901 355.81 383.846 356.048C371.146 356.286 358.68 358.666 347.155 365.092C334.454 372.232 322.93 380.8 314.227 392.224C303.878 405.79 297.293 421.736 294.941 438.634C293.765 448.154 294 457.912 294.706 467.432C295.176 474.096 295.882 481.236 298.469 487.424C306.936 507.654 320.107 524.076 337.512 537.166C363.384 556.444 392.078 566.202 424.301 562.87C437.237 561.68 450.173 559.776 462.168 554.778C477.691 548.352 492.509 540.736 504.269 528.36C514.853 517.65 524.026 506.464 529.67 492.898ZM527.318 54.9782C529.906 49.0282 531.552 42.8402 533.669 36.4142C528.024 36.4142 523.085 36.1762 518.146 36.4142C501.211 37.1282 484.277 36.8902 467.578 40.4602C433.944 48.0762 406.661 66.1642 384.787 92.5822C368.088 112.812 359.386 137.564 352.33 162.554C347.626 179.69 343.627 197.064 336.101 213.248C330.221 225.862 325.046 238.714 318.696 251.09C312.346 263.704 305.29 276.318 297.998 288.456C292.589 297.738 286.944 306.782 280.594 315.112C269.304 329.868 257.779 344.386 245.784 358.428C240.139 365.092 233.083 370.804 226.262 377.468C230.261 378.42 233.789 379.61 237.317 380.324C238.022 380.562 239.198 379.848 239.904 379.134C245.784 373.422 252.37 367.948 257.544 361.522C268.128 348.194 278.006 334.628 287.885 320.824C292.118 315.112 296.352 309.162 299.88 302.736C312.346 280.364 324.576 257.992 336.571 235.382C345.744 218.008 353.035 199.444 358.915 180.642C360.326 175.882 361.973 171.122 364.09 166.6C365.971 162.792 370.675 162.554 373.262 165.886C376.79 170.408 380.554 174.93 384.082 179.452C401.251 201.824 410.894 227.766 418.186 254.66C424.066 276.556 428.77 298.928 430.416 321.776C431.357 335.104 431.827 348.432 430.181 361.998C429.005 371.28 427.594 380.562 426.182 389.844C431.592 391.272 432.298 391.272 433.003 385.798C434.65 373.898 436.766 361.998 436.766 350.336C437.002 329.392 435.12 308.686 431.592 287.98C426.653 258.944 418.891 230.384 406.661 203.49C402.427 193.97 397.488 185.164 390.902 177.072C387.374 172.788 383.846 168.742 380.318 164.458C378.672 162.316 378.202 159.936 379.848 157.794C381.73 155.652 383.846 155.652 386.434 156.604C389.021 157.556 392.078 157.794 394.901 158.27C397.253 158.508 399.84 158.508 402.192 158.27C410.894 158.032 419.597 158.746 428.064 156.842C450.408 152.082 469.694 140.896 485.453 124.236C503.798 104.244 516.264 79.9682 527.318 54.9782ZM418.656 353.668C418.656 343.434 419.362 333.676 418.421 323.918C415.128 283.22 405.485 243.95 388.08 207.06C383.611 197.778 377.966 189.448 371.146 180.88C349.507 242.998 317.755 298.69 280.123 351.764C296.822 352.002 311.17 355.572 323.165 366.758C352.8 343.91 384.082 336.532 418.656 353.668ZM285.768 425.544C291.648 406.504 299.88 388.654 314.462 374.612C304.819 365.806 293.294 362.712 281.064 362.95C277.066 362.95 272.362 363.426 269.304 365.568C264.365 369.376 260.366 374.612 256.133 379.134C259.19 378.42 261.778 376.992 264.6 375.802C267.658 374.374 270.95 375.326 272.362 377.944C273.773 380.562 273.067 384.132 270.01 385.56C264.13 388.416 258.014 391.986 251.664 392.7C234.259 394.366 218.971 388.178 205.8 376.516C203.918 374.85 202.037 372.708 200.626 370.328C198.979 367.71 199.214 365.092 202.037 363.188C204.624 361.522 206.976 362.474 208.858 364.616C209.563 365.33 210.034 366.282 210.739 366.996C214.267 371.28 215.678 371.756 220.147 368.186C224.616 364.616 228.614 360.57 233.554 356.048C223.44 352.002 213.562 350.098 203.683 349.622C185.573 348.908 169.109 354.858 154.056 364.854C130.301 380.8 115.248 403.172 108.662 431.018C106.781 439.11 105.605 447.678 106.546 455.77C109.368 480.522 118.541 502.18 136.416 520.03C151.469 535.262 168.638 546.448 188.63 553.112C217.325 562.632 246.254 562.632 274.714 551.922C288.59 546.686 300.586 538.356 310.934 528.122C305.29 520.03 299.41 512.176 294.235 503.846C292.354 500.752 290.237 500.038 286.944 500.038C277.301 500.276 267.893 500.276 258.25 500.038C251.194 499.8 244.138 498.134 237.787 494.326C225.792 486.71 221.558 474.81 221.794 461.244C222.264 446.25 228.144 434.35 243.667 428.876C244.608 428.638 245.549 426.734 245.784 425.544C247.195 419.356 247.666 413.168 249.782 407.218C252.605 399.364 258.485 396.27 266.246 397.222C272.832 397.936 278.477 403.172 279.888 410.312C280.594 413.406 280.358 416.5 281.064 419.594C281.534 421.736 282.71 423.878 283.651 426.02C285.062 425.782 285.533 425.782 285.768 425.544ZM266.011 488.852H286.709C285.533 480.046 283.651 471.478 283.181 462.91C282.475 454.342 282.946 445.536 282.946 436.016C275.184 433.398 272.126 427.21 271.421 419.118C271.186 416.976 270.95 414.834 270.48 412.692C270.01 409.836 268.128 408.408 265.306 408.408C262.718 408.17 261.072 409.598 260.602 411.978C259.661 416.5 258.72 421.26 257.779 426.02C257.309 428.162 258.014 429.59 260.131 430.542C268.128 434.112 272.362 441.014 274.008 449.106C276.125 460.054 275.184 470.764 270.245 480.76C269.069 483.378 267.658 485.996 266.011 488.852ZM259.426 466.718C262.954 467.194 264.835 465.766 263.894 461.72C259.661 461.006 255.662 460.53 251.429 459.816C248.606 459.34 247.195 457.436 247.43 454.58C247.666 451.724 249.547 450.296 252.37 450.058C254.251 449.82 256.133 450.296 258.014 450.296C259.896 450.296 261.542 450.296 263.424 450.296C261.778 443.394 257.309 439.586 250.958 439.348C244.843 439.348 238.493 443.632 236.141 449.106C230.966 461.958 233.554 476.238 242.491 482.902C248.371 487.424 256.133 484.568 258.485 476.714C255.898 476.238 253.31 475.762 250.723 475.524C247.666 475.048 245.314 473.62 245.549 470.05C245.784 466.48 248.371 465.29 251.429 465.29C254.486 466.004 256.838 466.48 259.426 466.718ZM82.5552 488.376H102.312C97.3728 470.526 94.08 452.914 96.1968 434.588C85.3776 429.114 83.496 426.496 82.0848 414.596C81.8496 412.216 81.3792 410.074 80.6736 407.694C79.4976 403.648 76.2048 402.696 73.1472 405.552C71.736 406.742 70.56 408.884 70.3248 410.788C69.384 414.834 69.1488 418.88 68.4432 422.926C67.9728 425.544 68.9136 426.496 71.2656 427.21C78.3216 429.352 84.4368 433.398 86.5536 440.538C91.2576 454.818 92.4336 469.336 84.9072 483.14C84.4368 484.806 83.7312 486.234 82.5552 488.376ZM73.8528 466.718C79.968 466.718 79.968 466.718 79.2624 460.054C75.0288 459.816 70.7952 459.578 66.5616 459.102C63.7392 458.864 61.3872 457.674 60.9168 454.58C60.4464 451.486 62.7984 449.106 66.7968 448.868C70.56 448.868 74.5584 448.868 79.2624 448.868C77.8512 446.25 77.3808 443.156 75.4992 441.728C69.384 436.73 59.5056 434.112 52.6848 441.49C44.2176 451.01 40.2192 470.764 55.5072 482.664C63.2688 488.614 71.9712 486.472 75.264 477.19C73.3824 477.19 71.5008 477.19 69.8544 477.19C67.5024 477.19 65.1504 477.19 63.0336 476.714C60.2112 476 58.3296 474.096 58.8 470.764C59.2704 467.432 61.6224 466.48 64.68 466.718C67.7376 466.718 70.7952 466.956 73.8528 466.718Z" fill="black"/>
<path d="M535.08 422.449C540.96 446.487 539.313 470.049 529.905 492.897C524.261 506.463 514.853 517.649 504.974 528.121C492.979 540.497 478.161 548.113 462.873 554.539C450.878 559.537 437.942 561.441 425.006 562.631C392.549 565.725 364.089 556.205 338.217 536.927C320.577 523.837 307.406 507.415 299.174 487.185C296.587 480.997 295.881 474.095 295.411 467.193C294.941 457.673 294.47 447.915 295.646 438.395C297.763 421.259 304.584 405.551 314.933 391.985C323.635 380.323 335.16 371.993 347.861 364.853C359.385 358.427 371.616 356.047 384.552 355.809C395.606 355.571 405.955 358.903 415.598 364.139C417.95 365.567 418.891 367.233 418.185 369.851C417.009 375.563 416.069 381.275 414.657 388.415C410.894 385.321 407.366 382.941 404.544 380.085C401.957 377.467 399.369 376.515 397.017 378.181C394.665 379.847 394.195 383.179 396.312 386.035C401.957 394.127 410.424 398.173 419.597 400.315C434.649 403.885 449.232 400.791 463.109 394.365C467.107 392.461 468.283 389.367 467.107 386.273C465.696 383.179 462.403 382.465 458.169 384.131C453.936 385.797 449.702 387.463 444.998 389.129C445.939 381.989 446.645 375.563 448.056 369.137C448.291 367.947 451.349 366.757 453.23 366.281C465.696 364.377 477.926 365.805 489.451 370.803C512.03 381.037 528.965 397.221 535.08 422.449ZM394.195 440.775C394.195 435.777 391.608 432.921 386.904 432.683C382.67 432.445 378.907 436.015 378.907 440.061C378.907 444.107 382.67 447.915 386.669 447.915C390.902 448.391 393.96 445.297 394.195 440.775ZM386.904 472.429C389.256 470.049 389.491 467.193 387.139 464.337C385.258 462.195 381.965 462.195 379.142 464.337C377.496 465.527 376.085 467.193 374.673 468.383C369.969 472.429 364.325 473.857 358.209 472.905C352.094 471.953 348.096 468.383 345.273 463.147C343.862 460.529 341.746 459.339 338.923 460.529C336.101 461.719 335.395 464.337 336.101 467.193C336.336 468.383 336.806 469.335 337.512 470.287C343.392 479.331 351.624 484.329 362.443 483.615C372.557 484.329 380.553 479.569 386.904 472.429ZM342.921 444.345C346.685 444.345 350.683 440.061 350.683 436.253C350.683 432.445 347.155 428.875 343.157 428.875C339.158 428.875 336.101 432.207 335.865 436.253C335.865 440.775 338.923 444.345 342.921 444.345Z" fill="#E95E3F"/>
<path d="M533.669 36.1758C531.552 42.6018 529.906 49.0278 527.318 54.7398C516.264 79.7298 503.798 104.006 484.982 123.998C469.224 140.896 449.938 151.844 427.594 156.604C419.362 158.27 410.424 157.556 401.722 158.032C399.37 158.032 396.782 158.27 394.43 158.032C391.608 157.794 388.786 157.318 385.963 156.366C383.376 155.414 381.259 155.414 379.378 157.556C377.731 159.698 377.966 162.078 379.848 164.22C383.376 168.504 386.904 172.55 390.432 176.834C397.018 184.688 401.957 193.732 406.19 203.252C418.421 230.146 426.182 258.706 431.122 287.742C434.65 308.21 436.766 329.154 436.296 350.098C436.061 361.998 434.179 373.898 432.533 385.56C431.827 391.034 431.122 391.034 425.712 389.606C427.123 380.324 428.534 371.042 429.71 361.76C431.592 348.432 431.122 335.104 429.946 321.538C428.299 298.69 423.83 276.318 417.715 254.422C410.424 227.528 400.781 201.586 383.611 179.214C380.083 174.692 376.555 170.17 372.792 165.648C370.205 162.316 365.501 162.316 363.619 166.362C361.502 170.884 359.856 175.644 358.445 180.404C352.565 199.444 345.274 217.77 336.101 235.144C324.341 257.754 311.875 280.126 299.41 302.498C295.882 308.686 291.648 314.636 287.414 320.586C277.536 334.39 267.658 347.956 257.074 361.284C251.899 367.71 245.549 373.184 239.434 378.896C238.728 379.61 237.552 380.086 236.846 380.086C233.318 379.372 229.79 378.42 225.792 377.23C232.848 370.328 239.669 364.854 245.314 358.19C257.309 344.148 269.069 329.63 280.123 314.874C286.474 306.306 292.118 297.262 297.528 288.218C304.819 275.842 311.875 263.466 318.226 250.852C324.341 238.476 329.75 225.624 335.63 213.01C343.157 196.826 347.155 179.452 351.859 162.316C358.915 137.088 367.618 112.574 384.317 92.3438C406.19 65.9258 433.474 47.8378 467.107 40.2218C483.806 36.4138 500.741 36.6518 517.675 36.1758C523.085 36.1758 528.024 36.1758 533.669 36.1758ZM496.742 69.4958C497.448 67.5918 498.389 64.7358 497.683 63.3078C496.742 61.6418 493.92 60.9278 491.803 60.6898C490.627 60.4518 488.981 61.6418 487.805 62.5938C474.869 70.4478 461.933 78.0638 449.232 86.1558C439.118 92.3438 429.24 99.0078 419.362 105.672C409.248 112.574 399.605 119.714 389.726 126.854C388.55 127.806 387.374 128.758 386.669 130.186C384.787 133.756 387.139 137.564 391.843 137.326C392.549 136.85 394.195 136.374 395.606 135.422C406.19 128.282 416.539 120.666 427.358 114.002C449.467 99.9598 471.811 86.3938 493.92 72.5898C494.626 71.3998 496.272 70.6858 496.742 69.4958Z" fill="#7EFD9A"/>
<path d="M497.448 63.3079C498.389 64.7359 497.448 67.5919 496.507 69.4959C496.037 70.6859 494.39 71.3999 493.214 72.1139C471.106 85.9179 448.762 99.4839 426.653 113.526C415.834 120.428 405.485 127.806 394.901 134.946C393.49 135.898 392.078 136.374 391.138 136.85C386.434 137.088 384.082 133.042 385.963 129.71C386.669 128.52 387.845 127.33 389.021 126.378C398.899 119.238 408.542 112.098 418.656 105.196C428.534 98.5319 438.413 92.1059 448.526 85.6799C461.227 77.8259 474.163 69.9719 487.099 62.1179C488.51 61.4039 489.922 59.9759 491.098 60.2139C493.685 60.9279 496.507 61.6419 497.448 63.3079Z" fill="black"/>
<path d="M386.904 432.921C391.608 433.159 394.195 436.015 394.195 441.013C394.195 445.535 390.902 448.629 386.669 448.391C382.435 448.153 378.907 444.583 378.907 440.537C378.907 436.253 382.67 432.683 386.904 432.921Z" fill="black"/>
<path d="M387.139 464.576C389.491 467.194 389.256 470.05 386.904 472.668C380.318 479.808 372.557 484.568 362.443 484.33C351.624 484.806 343.627 479.808 337.512 471.002C336.806 470.05 336.336 468.86 336.101 467.908C335.395 465.052 336.101 462.434 338.923 461.244C341.746 460.054 343.862 461.482 345.274 463.862C348.096 469.098 352.329 472.668 358.209 473.62C364.325 474.572 369.734 473.144 374.673 469.098C376.32 467.67 377.731 466.242 379.142 465.052C382.2 462.196 385.257 462.196 387.139 464.576Z" fill="black"/>
<path d="M350.683 436.015C350.683 439.823 346.685 444.107 342.922 444.107C338.923 444.107 335.866 440.775 336.101 436.015C336.101 431.731 339.394 428.637 343.392 428.637C347.155 428.637 350.683 432.207 350.683 436.015Z" fill="black"/>
<path d="M314.698 374.612C300.115 388.892 291.883 406.504 286.003 425.544C285.533 425.782 285.298 425.782 284.827 426.02C283.887 423.878 282.711 421.736 282.24 419.594C281.535 416.5 281.535 413.406 281.064 410.312C279.418 403.172 273.773 397.936 267.423 397.222C259.426 396.508 253.546 399.364 250.959 407.218C248.842 413.168 248.371 419.356 246.96 425.544C246.725 426.734 245.784 428.638 244.843 428.876C229.32 434.35 223.44 446.25 222.97 461.244C222.499 474.81 226.968 486.71 238.963 494.326C245.079 498.372 252.135 499.8 259.426 500.038C269.069 500.276 278.477 500.276 288.12 500.038C291.413 500.038 293.53 500.752 295.411 503.846C300.586 512.176 306.466 520.03 312.111 528.122C301.762 538.356 289.767 546.686 275.89 551.922C247.431 562.632 218.501 562.632 189.807 553.112C169.815 546.448 152.645 535.024 137.592 520.03C119.717 502.18 110.544 480.522 107.722 455.77C106.781 447.678 107.957 438.872 109.839 431.018C116.189 402.934 131.242 380.8 155.232 364.854C170.285 354.858 186.514 348.908 204.859 349.622C214.738 349.86 224.616 351.764 234.73 356.048C229.791 360.57 225.792 364.616 221.323 368.186C216.855 371.756 215.443 371.28 211.915 366.996C211.21 366.282 210.739 365.33 210.034 364.616C208.152 362.474 205.8 361.522 203.213 363.188C200.391 364.854 200.155 367.71 201.802 370.328C203.213 372.708 204.859 374.85 206.976 376.516C220.147 388.178 235.435 394.366 252.84 392.7C259.191 391.986 265.306 388.416 271.186 385.56C274.243 384.132 274.949 380.562 273.538 377.944C272.127 375.326 269.069 374.374 265.776 375.802C262.954 376.992 260.367 378.42 257.309 379.134C261.543 374.612 265.541 369.138 270.48 365.568C273.538 363.426 278.242 362.95 282.24 362.95C293.53 362.712 305.055 365.568 314.698 374.612ZM190.277 439.586C194.04 439.586 197.098 436.492 197.098 432.684C196.863 428.876 193.805 425.782 190.277 425.782C186.984 426.02 183.927 429.114 183.927 432.684C183.691 436.492 186.514 439.586 190.277 439.586ZM190.277 467.908C191.923 465.528 192.159 462.91 190.042 460.768C187.925 458.626 185.103 458.626 182.751 460.53C182.045 461.006 181.339 461.958 180.634 462.672C170.991 471.716 158.29 470.288 151.234 459.34C149.587 456.96 147.235 455.77 145.119 457.198C143.472 458.15 142.296 461.006 142.296 462.672C142.296 464.814 143.943 467.194 145.119 469.098C150.528 476.476 158.29 478.618 167.933 479.332C170.05 478.856 173.578 478.618 176.635 477.428C181.81 475.762 186.984 472.906 190.277 467.908ZM148.411 438.396C152.175 437.682 154.762 433.636 153.821 429.59C153.115 426.02 149.587 423.878 146.059 424.592C142.296 425.306 140.179 428.876 141.12 433.16C141.826 436.968 144.883 438.872 148.411 438.396Z" fill="#E95E3F"/>
<path d="M286.709 488.852H266.011C267.422 485.996 268.834 483.378 270.245 480.522C275.184 470.526 276.36 459.816 274.008 448.868C272.362 440.538 268.128 433.874 260.131 430.304C258.014 429.352 257.309 428.162 257.779 425.782C258.72 421.26 259.661 416.5 260.602 411.74C261.072 409.36 262.718 407.932 265.306 408.17C268.128 408.408 269.774 409.836 270.48 412.454C270.95 414.596 271.186 416.738 271.421 418.88C272.126 426.972 275.419 433.16 282.946 435.778C282.946 445.06 282.475 453.866 283.181 462.672C283.651 471.478 285.298 480.046 286.709 488.852Z" fill="white"/>
<path d="M263.894 461.958C264.6 465.766 262.954 467.194 259.426 466.956C256.838 466.718 254.486 466.242 251.899 466.242C248.842 466.242 246.254 467.432 246.019 471.002C245.784 474.572 248.136 476 251.194 476.476C253.781 476.952 256.368 477.428 258.955 477.666C256.603 485.52 248.842 488.376 242.962 483.854C234.024 477.19 231.202 462.91 236.611 450.058C238.963 444.346 245.314 440.062 251.429 440.3C257.779 440.3 262.248 444.108 263.894 451.248C262.013 451.248 260.131 451.248 258.485 451.248C256.603 451.248 254.722 450.772 252.84 451.01C250.018 451.248 248.136 452.676 247.901 455.532C247.666 458.388 249.312 460.292 251.899 460.768C255.662 460.768 259.896 461.244 263.894 461.958Z" fill="white"/>
<path d="M196.862 432.684C197.098 436.254 193.805 439.586 190.042 439.586C186.514 439.586 183.456 436.73 183.456 432.922C183.456 429.352 186.514 426.02 189.806 426.02C193.57 425.782 196.862 429.114 196.862 432.684Z" fill="black"/>
<path d="M190.042 461.006C192.158 463.148 191.923 465.766 190.277 468.146C186.984 473.144 181.81 475.762 176.4 477.904C173.342 479.094 170.05 479.332 167.698 479.808C158.054 479.094 150.293 476.952 144.883 469.574C143.472 467.67 142.061 465.29 142.061 463.148C142.061 461.244 143.237 458.626 144.883 457.674C147 456.246 149.587 457.436 150.998 459.816C158.054 470.764 170.755 472.192 180.398 463.148C181.104 462.434 181.81 461.72 182.515 461.006C185.102 458.864 187.69 458.626 190.042 461.006Z" fill="black"/>
<path d="M153.821 429.59C154.762 433.636 152.174 437.682 148.411 438.396C144.883 439.11 141.826 436.968 141.12 433.398C140.179 429.114 142.296 425.544 146.059 424.83C149.822 423.878 153.115 426.02 153.821 429.59Z" fill="black"/>
<path d="M102.312 488.376H82.5551C83.4959 486.472 84.4367 484.806 85.3775 483.14C92.9039 469.098 91.7279 454.818 87.0239 440.538C84.6719 433.398 78.7919 429.352 71.7359 427.21C69.3839 426.496 68.4431 425.306 68.9135 422.926C69.6191 418.88 69.8543 414.834 70.7951 410.788C71.2655 408.884 72.2063 406.98 73.6175 405.552C76.6751 402.696 79.9679 403.886 81.1439 407.694C81.8495 409.836 82.0847 412.216 82.5551 414.596C83.9663 426.496 85.8479 429.352 96.6671 434.588C94.0799 452.676 97.6079 470.526 102.312 488.376Z" fill="white"/>
<path d="M79.2624 460.053C79.968 466.717 79.968 466.717 73.8528 466.717C70.7952 466.717 67.7376 466.717 64.68 466.479C61.6224 466.241 59.2704 467.193 58.8 470.525C58.3296 473.857 60.2112 475.761 63.0336 476.475C65.1504 476.951 67.5024 476.951 69.8544 476.951C71.5008 476.951 73.3824 476.951 75.264 476.951C71.9712 486.233 63.2688 488.375 55.5072 482.425C40.2192 470.525 44.2176 450.771 52.6848 441.251C59.2704 433.635 69.384 436.491 75.4992 441.489C77.3808 442.917 77.8512 446.011 79.2624 448.629C74.5584 448.629 70.56 448.629 66.7968 448.629C63.0336 448.629 60.6816 451.009 60.9168 454.341C61.3872 457.673 63.7392 458.625 66.5616 458.863C70.7952 459.577 75.0288 459.815 79.2624 460.053Z" fill="white"/>
</svg>
