<svg width="268" height="302" viewBox="0 0 268 302" fill="none" xmlns="http://www.w3.org/2000/svg">
<g clip-path="url(#clip0_297_2436)">
<g clip-path="url(#clip1_297_2436)">
<g clip-path="url(#clip2_297_2436)">
<path d="M133.852 284.8C127.327 284.8 121.691 280.648 119.912 274.42C119.022 271.157 115.463 269.377 112.497 270.267C111.31 270.564 110.124 271.454 109.234 272.64C104.489 279.165 95.5906 280.945 88.7688 276.199C84.6164 273.53 82.2436 268.784 82.5402 263.742C82.5402 260.48 79.8708 257.514 76.6083 257.514C75.1253 257.514 73.9389 257.81 72.7525 258.7C66.2273 263.446 57.0327 262.259 52.2871 255.734C49.3211 251.878 48.4313 246.836 50.2109 242.091C51.3973 238.828 49.6177 235.566 46.3552 234.379C45.1688 234.083 43.6858 234.083 42.4994 234.379C34.7878 237.049 26.483 232.896 23.8136 225.185C22.3306 220.736 22.9238 215.397 25.8898 211.541C27.966 208.872 27.3728 205.016 24.7034 203.237C23.517 202.347 22.3306 202.05 20.8476 202.05C12.8395 202.347 6.01769 195.822 6.01769 187.814C6.01769 182.771 8.39048 178.323 12.2463 175.357C14.9157 173.577 15.5089 169.721 13.7293 167.052C12.8395 165.866 11.9497 165.272 10.4667 164.679C2.7551 162.306 -1.69388 154.002 0.67891 146.29C2.1619 141.545 5.72109 137.985 10.4667 136.503C13.7293 135.613 15.5089 132.054 14.6191 129.088C14.3225 127.901 13.4327 126.715 12.2463 125.825C5.72109 121.08 3.9415 112.182 8.68708 105.36C11.3565 101.208 16.1021 98.8348 21.1442 99.1314C24.4068 99.1314 27.3728 96.4621 27.3728 93.1995C27.3728 91.7165 27.0762 90.5301 26.1864 89.3438C21.4408 82.8186 22.6272 73.6242 29.1524 68.8786C33.0082 65.9127 38.0504 65.0229 42.796 66.8025C46.0586 67.9888 49.3211 66.2093 50.5075 62.9467C50.8041 61.7603 50.8041 60.2774 50.5075 59.091C47.8381 51.3795 51.9905 43.0748 59.7021 40.4054C64.1511 38.9224 69.4899 39.5156 73.3457 42.4816C76.0151 44.5578 79.8708 43.9646 81.6504 41.2952C82.5402 40.1088 82.8368 38.9224 82.8368 37.4395C82.5402 29.4314 89.0654 22.6097 97.0736 22.6097C102.116 22.6097 106.565 24.9824 109.531 28.8382C111.31 31.5075 115.166 32.1007 117.836 30.3212C119.022 29.4314 119.615 28.5416 120.208 27.0586C122.581 19.3471 130.886 14.8982 138.597 17.2709C143.343 18.7539 146.902 22.3131 148.385 27.0586C148.978 29.1348 150.758 30.9144 153.131 31.211C155.504 31.5075 157.58 30.6178 159.063 28.8382C163.808 22.3131 172.706 20.5335 179.528 25.279C183.681 27.9484 186.053 32.6939 185.757 37.7361C185.757 40.9986 188.426 43.9646 191.689 43.9646C193.172 43.9646 194.358 43.668 195.544 42.7782C202.07 38.0327 211.264 39.219 216.01 45.7442C218.976 49.5999 219.866 54.642 218.086 59.3876C216.9 62.6501 218.679 65.9127 221.942 67.0991C223.128 67.3957 224.611 67.3957 225.798 67.0991C233.509 64.4297 241.814 68.582 244.483 76.2935C245.966 80.7425 245.373 86.0812 242.407 89.9369C240.331 92.6063 240.924 96.4621 243.593 98.2416C244.78 99.1314 245.966 99.428 247.449 99.428C255.457 99.1314 262.279 105.657 262.279 113.665C262.279 118.707 259.906 123.156 256.051 126.122C253.974 127.308 253.085 129.681 253.381 132.054C253.678 134.426 255.457 136.206 257.534 136.799C265.245 139.172 269.694 147.477 267.321 155.188C265.838 159.934 262.279 163.493 257.534 164.976C254.271 165.866 252.491 169.425 253.381 172.391C253.678 173.577 254.568 174.763 255.754 175.653C262.279 180.399 264.059 189.297 259.313 196.118C256.644 200.271 251.898 202.643 246.856 202.347C244.483 202.347 242.407 203.533 241.221 205.609C240.034 207.686 240.331 210.058 241.814 212.134C246.559 218.66 245.373 227.854 238.848 232.6C234.992 235.566 229.95 236.455 225.204 234.676C221.942 233.489 218.679 235.269 217.493 238.532C217.196 239.718 217.196 241.201 217.493 242.387C220.162 250.099 216.01 258.403 208.298 261.073C203.849 262.556 198.51 261.963 194.655 258.997C191.985 256.92 188.129 257.514 186.35 260.183C185.46 261.369 185.164 262.556 185.164 264.039C185.46 272.047 178.935 278.869 170.927 278.869C165.885 278.869 161.436 276.496 158.47 272.64C157.283 270.86 154.91 269.674 152.538 270.267C150.165 270.564 148.385 272.343 147.792 274.42C146.012 280.648 140.377 284.8 133.852 284.8ZM113.98 261.666C114.87 261.666 115.463 261.666 116.353 261.963C121.988 262.852 126.437 266.708 127.92 272.047C128.81 275.309 132.369 277.089 135.335 275.903C137.114 275.309 138.597 273.826 139.191 272.047C141.563 264.335 149.868 259.886 157.58 262.259C160.546 263.149 163.512 265.225 165.291 267.895C167.368 270.564 170.927 271.157 173.893 269.081C175.376 267.894 176.266 266.115 176.266 264.335C175.969 256.327 182.494 249.506 190.502 249.506C193.765 249.506 197.027 250.395 199.697 252.472C202.366 254.548 206.222 253.954 208.002 251.285C209.188 249.802 209.485 247.429 208.891 245.65C206.222 237.938 210.078 229.634 217.789 226.964C221.052 225.778 224.315 225.778 227.577 226.964C230.84 228.151 234.102 226.371 235.289 223.109C235.882 221.329 235.585 218.956 234.399 217.473C229.653 210.948 230.84 201.754 237.365 197.008C240.034 194.932 243.297 194.042 246.559 194.042C249.822 194.042 252.491 191.373 252.788 188.11C252.788 186.034 251.898 184.254 250.119 183.068C243.593 178.323 241.814 169.425 246.559 162.603C248.339 159.934 251.008 157.857 254.271 156.968C257.534 156.078 259.313 152.519 258.127 149.553C257.534 147.773 256.051 146.29 254.271 145.697C246.559 143.324 242.111 135.02 244.483 127.308C245.373 124.342 247.449 121.376 250.119 119.597C252.788 117.52 253.381 113.665 251.305 110.995C250.119 109.512 248.339 108.622 246.559 108.622C238.551 108.919 231.73 102.394 231.73 94.3859C231.73 91.1233 232.619 87.8608 234.696 85.1914C236.772 82.5221 236.179 78.6663 233.509 76.8867C232.026 75.7003 229.653 75.4037 227.874 75.9969C220.162 78.6663 211.857 74.8106 209.188 67.0991C208.002 63.8365 208.002 60.5739 209.188 57.3114C210.374 54.0488 208.595 50.7863 205.332 49.5999C203.553 49.0067 201.18 49.3033 199.697 50.4897C193.172 55.2352 183.977 54.0488 179.232 47.5237C177.155 44.8544 176.266 41.5918 176.266 38.3293C176.266 35.0667 173.596 32.3973 170.037 32.3973C168.257 32.3973 166.181 33.2871 165.291 34.7701C160.546 41.2952 151.648 43.0748 144.826 38.3293C142.157 36.5497 140.08 33.8803 139.191 30.6178C138.301 27.3552 134.742 25.5756 131.776 26.762C129.996 27.3552 128.513 28.8382 127.92 30.6178C125.547 38.3293 117.242 42.7782 109.531 40.4054C106.565 39.5156 103.599 37.4395 101.819 34.7701C99.743 32.1007 96.1838 31.5075 93.2178 33.5837C91.7348 34.7701 90.845 36.5497 90.845 38.3293C91.1416 46.3373 84.6164 53.159 76.6083 53.159C73.3457 53.159 70.0831 52.2693 67.4137 50.1931C64.7443 48.1169 60.8885 48.7101 59.1089 51.3795C57.9225 52.8625 57.6259 55.2352 58.2191 57.0148C60.8885 64.7263 57.0327 73.031 49.3211 75.7003C46.0586 76.8867 42.796 76.8867 39.5334 75.7003C36.2708 74.514 33.0082 76.2935 31.8218 79.5561C31.2286 81.3357 31.5252 83.7084 32.7116 85.1914C37.4572 91.7165 36.2708 100.911 29.7456 105.657C27.0762 107.733 23.8136 108.622 20.551 108.622C17.2885 108.622 14.6191 111.292 14.6191 114.851C14.6191 116.631 15.5089 118.707 16.9919 119.597C23.517 124.342 25.2966 133.24 20.551 140.062C18.7715 142.731 16.1021 144.807 12.8395 145.697C9.57688 146.587 7.79729 150.146 8.98368 153.112C9.57688 154.891 11.0599 156.374 12.8395 156.968C20.551 159.34 25 167.645 22.6272 175.357C21.7374 178.323 19.6612 181.288 16.9919 183.068C14.3225 185.144 13.7293 188.703 15.8055 191.669C16.9919 193.152 18.7715 194.042 20.551 194.042C28.5592 193.746 35.381 200.271 35.381 208.279C35.381 211.541 34.4912 214.804 32.415 217.473C30.3388 220.143 30.932 223.998 33.6014 225.778C35.0844 226.964 37.4572 227.261 39.2368 226.668C46.9484 223.998 55.2531 227.854 57.9225 235.566C59.1089 238.828 59.1089 242.091 57.9225 245.353C56.7361 248.616 58.5157 251.878 61.7783 253.065C63.5579 253.658 65.9307 253.361 67.4137 252.175C73.9389 247.429 83.1334 248.616 87.879 255.141C89.9552 257.81 90.845 261.073 90.845 264.335C90.845 267.598 93.5144 270.267 96.777 270.564C98.8532 270.564 100.633 269.674 101.819 267.895C104.785 264.039 109.234 261.666 113.98 261.666Z" fill="#FF5B03"/>
<g clip-path="url(#clip3_297_2436)">
<g clip-path="url(#clip4_297_2436)">
<g clip-path="url(#clip5_297_2436)">
<g clip-path="url(#clip6_297_2436)">
<g clip-path="url(#clip7_297_2436)">
<g clip-path="url(#clip8_297_2436)">
<g clip-path="url(#clip9_297_2436)">
<path d="M168.841 131.972L154.636 147.387C154.618 147.405 154.598 147.422 154.579 147.44C152.207 149.777 149.118 150.944 146.027 150.944C144.184 150.944 142.339 150.529 140.647 149.697L128.472 161.872L129.368 162.767L107.396 184.739L107.395 184.74C106.506 185.629 105.375 186.129 104.214 186.24C104.048 186.257 103.881 186.264 103.714 186.264C103.631 186.264 103.548 186.262 103.465 186.258C102.966 186.234 102.47 186.139 101.993 185.972C101.914 185.945 101.834 185.914 101.756 185.883C101.13 185.628 100.543 185.248 100.035 184.739C99.5263 184.231 99.1458 183.644 98.8912 183.018C98.8597 182.94 98.829 182.861 98.8018 182.781C98.6349 182.304 98.5396 181.809 98.5157 181.309C98.5038 181.06 98.5098 180.809 98.5336 180.561C98.6443 179.4 99.1449 178.27 100.034 177.38L100.035 177.379L122.005 155.409L122.901 156.304L135.076 144.13C132.839 139.576 133.611 133.919 137.398 130.131L137.403 130.136L152.81 115.941C153.285 115.466 153.818 115.299 154.278 115.299C154.734 115.299 155.119 115.461 155.308 115.65L139.116 131.844L139.117 131.846L155.31 115.653C155.69 116.033 155.964 117.208 155.021 118.152L140.825 133.555L144.313 137.043L159.717 122.848C160.192 122.373 160.725 122.206 161.186 122.207C161.641 122.207 162.027 122.37 162.216 122.559L146.023 138.751L146.025 138.753L162.218 122.56C162.597 122.94 162.871 124.115 161.928 125.059L147.733 140.463L151.226 143.956L166.63 129.761C167.106 129.286 167.638 129.119 168.099 129.12C168.555 129.12 168.94 129.283 169.129 129.472L152.936 145.665L152.937 145.666L169.13 129.474C169.51 129.853 169.785 131.027 168.841 131.972ZM143.913 155.411L143.017 156.307L140.542 153.832L134.974 159.399L137.449 161.873L136.553 162.769L158.524 184.739C160.557 186.772 163.851 186.771 165.884 184.739C167.916 182.707 167.915 179.412 165.884 177.38L143.913 155.411ZM122.865 152.313L130.945 144.233L128.468 141.757L112.639 125.928C111.017 124.307 106.384 120.77 104.403 122.56L104.401 122.562C100.939 126.033 105.636 136.349 114.894 145.607C117.526 148.239 120.244 150.501 122.865 152.313Z" fill="#FF5B03"/>
</g>
</g>
<path d="M76.8538 126.388C76.4185 127.56 75.994 128.123 75.5812 128.078L72.7337 127.774L71.539 130.989L73.8297 132.504C74.2157 132.737 74.183 133.46 73.7317 134.674C73.4914 135.321 73.2771 135.785 73.0887 136.068C72.9003 136.351 72.7848 136.484 72.7429 136.468L60.4027 127.814C60.2922 127.773 60.5793 126.83 61.2642 124.986C61.9491 123.141 62.3468 122.239 62.4573 122.28L77.4474 123.873C77.5421 123.908 77.5002 124.245 77.3227 124.885C77.1452 125.525 76.9886 126.026 76.8538 126.388ZM65.3852 126.884L69.1645 129.533L69.9524 127.413L65.4295 126.765L65.3852 126.884Z" fill="#FF5B03"/>
<path d="M87.979 107.639L78.8957 97.7935C78.6905 97.5708 79.1234 96.9655 80.1951 95.9767C81.2668 94.9887 81.9047 94.6053 82.1099 94.828L89.2659 102.585L91.7073 100.333C91.8965 100.158 92.2565 100.283 92.7865 100.71C93.0435 100.922 93.2905 101.157 93.5266 101.412C93.7585 101.663 93.9796 101.936 94.1897 102.23C94.5707 102.817 94.6661 103.197 94.4769 103.373L89.5999 107.871C89.3688 108.084 89.0984 108.159 88.7878 108.094C88.473 108.034 88.2034 107.882 87.979 107.639Z" fill="#FF5B03"/>
<path d="M126.136 90.2559C124.894 90.559 124.238 90.5699 124.169 90.2869L121.678 82.0049L121.206 91.1233C121.192 91.3058 120.74 91.5059 119.846 91.7245C118.953 91.943 118.474 91.979 118.409 91.8325L113.669 83.8761L115.415 92.2963C115.45 92.5073 115.22 92.7133 114.726 92.915C114.229 93.1235 113.809 93.2692 113.465 93.3529C113.122 93.4366 112.785 93.4961 112.453 93.5304C111.765 93.5949 111.396 93.5003 111.346 93.2474L108.503 79.5292C108.42 79.1918 109.231 78.8142 110.936 78.3972C111.437 78.275 112.059 78.1628 112.802 78.0632C113.547 77.9677 113.987 78.0221 114.123 78.2248L118.076 84.2362L118.512 77.1263C118.548 76.7311 119.467 76.3125 121.269 75.8721C121.787 75.7457 122.414 75.6326 123.152 75.5339C123.891 75.4401 124.284 75.4878 124.33 75.6787L128.291 89.2621C128.328 89.4145 128.083 89.5928 127.556 89.7971C127.028 90.0014 126.555 90.1538 126.136 90.2568V90.2559Z" fill="#FF5B03"/>
<path d="M157.36 94.6014C156.173 94.2096 155.595 93.806 155.625 93.3908L155.824 90.5341L152.567 89.4582L151.137 91.8025C150.919 92.1969 150.195 92.191 148.965 91.7841C148.31 91.5681 147.838 91.3705 147.548 91.1922C147.258 91.0138 147.121 90.9033 147.135 90.8615L155.333 78.2124C155.37 78.1002 156.322 78.353 158.191 78.9709C160.06 79.588 160.975 79.9522 160.938 80.0644L159.895 95.1021C159.863 95.1975 159.525 95.1691 158.879 95.0142C158.234 94.8601 157.727 94.722 157.36 94.6014ZM156.445 83.1588L153.935 87.0319L156.083 87.7411L156.564 83.1982L156.445 83.1588Z" fill="#FF5B03"/>
<path d="M186.784 95.7973L192.129 101.203C192.302 101.378 191.936 101.913 191.032 102.808C190.131 103.698 189.594 104.056 189.42 103.881L186.647 101.076L184.901 102.803L186.752 104.675C186.921 104.846 186.61 105.324 185.816 106.108C185.026 106.888 184.551 107.197 184.39 107.034L182.527 105.15L178.832 108.805C178.689 108.946 178.406 108.848 177.984 108.508C177.557 108.173 177.218 107.878 176.966 107.623L176.292 106.87C175.855 106.308 175.709 105.956 175.852 105.815L185.987 95.7923C186.15 95.6307 186.292 95.5579 186.41 95.5746C186.529 95.5914 186.654 95.665 186.784 95.7973Z" fill="#FF5B03"/>
<path d="M195.119 127.748L195.602 129.156L202.849 126.672L202.352 125.225C202.275 124.997 202.513 124.734 203.069 124.437C203.335 124.298 203.62 124.177 203.922 124.073C204.219 123.97 204.518 123.892 204.819 123.836C205.435 123.732 205.782 123.794 205.861 124.022L208.208 130.871C208.286 131.099 208.048 131.356 207.494 131.64C207.226 131.792 206.943 131.918 206.647 132.02C206.344 132.123 206.044 132.196 205.744 132.24C205.126 132.357 204.779 132.301 204.7 132.073L204.231 130.705L196.985 133.189L197.475 134.621C197.553 134.849 197.315 135.112 196.759 135.409C196.496 135.558 196.213 135.684 195.911 135.788C195.613 135.89 195.313 135.963 195.009 136.009C194.393 136.114 194.046 136.052 193.967 135.823L191.611 128.95C191.533 128.723 191.771 128.466 192.326 128.182C192.593 128.03 192.876 127.904 193.173 127.802C193.475 127.698 193.776 127.625 194.075 127.581C194.693 127.464 195.041 127.52 195.119 127.748Z" fill="#FF5B03"/>
<path d="M66.4979 182.782C66.0626 181.61 66.0165 180.906 66.3598 180.672L68.715 179.044L67.5211 175.827L64.7975 176.174C64.3529 176.25 63.9058 175.68 63.4545 174.467C63.2142 173.821 63.0736 173.329 63.0317 172.991C62.9899 172.654 62.9907 172.477 63.0326 172.462L78.0311 170.964C78.1366 170.925 78.5309 171.828 79.2166 173.673C79.9015 175.517 80.192 176.459 80.0865 176.498L67.6902 185.075C67.5956 185.11 67.4072 184.827 67.1242 184.227C66.8412 183.627 66.6327 183.144 66.4979 182.782ZM74.8554 174.924L70.2706 175.381L71.0576 177.5L74.8989 175.042L74.8554 174.924Z" fill="#FF5B03"/>
<path d="M82.2681 203.865L91.3506 194.019C91.5558 193.797 92.1946 194.18 93.2654 195.168C94.3371 196.156 94.77 196.761 94.5648 196.984L87.4088 204.741L89.8511 206.993C90.0403 207.168 89.944 207.537 89.5623 208.099C89.3714 208.373 89.1579 208.638 88.9218 208.893C88.6898 209.144 88.4362 209.387 88.1599 209.621C87.6056 210.048 87.2339 210.174 87.0438 209.998L82.1677 205.5C81.9366 205.287 81.8411 205.023 81.8796 204.708C81.9148 204.389 82.0437 204.109 82.2681 203.865Z" fill="#FF5B03"/>
<path d="M123.522 225.767C122.28 225.464 121.694 225.17 121.764 224.888L123.372 216.391L118.748 224.263C118.647 224.417 118.153 224.386 117.264 224.169C116.371 223.95 115.93 223.762 115.94 223.603L115.403 214.356L113.069 222.633C113.002 222.836 112.703 222.913 112.173 222.864C111.635 222.82 111.195 222.755 110.853 222.672C110.509 222.588 110.183 222.485 109.871 222.363C109.231 222.102 108.947 221.848 109.019 221.6L112.824 208.117C112.906 207.785 113.796 207.826 115.495 208.242C116.002 208.366 116.608 208.554 117.314 208.807C118.019 209.06 118.385 209.308 118.412 209.552L119.146 216.716L122.814 210.601C123.027 210.272 124.034 210.328 125.837 210.769C126.348 210.893 126.955 211.083 127.655 211.335C128.354 211.587 128.681 211.81 128.633 212.006L125.892 225.879C125.855 226.031 125.556 226.077 124.994 226.015C124.432 225.953 123.941 225.87 123.522 225.767Z" fill="#FF5B03"/>
<path d="M160.824 221.226C159.637 221.617 158.932 221.637 158.71 221.286L157.168 218.873L153.911 219.949L154.158 222.682C154.218 223.129 153.632 223.556 152.403 223.962C151.748 224.178 151.252 224.302 150.912 224.331C150.573 224.36 150.398 224.353 150.383 224.311L149.436 209.267C149.4 209.161 150.317 208.799 152.185 208.182C154.054 207.565 155.006 207.31 155.041 207.416L163.159 220.118C163.191 220.213 162.901 220.392 162.291 220.652C161.68 220.912 161.191 221.103 160.824 221.226ZM153.277 212.586L153.565 217.184L155.712 216.475L153.397 212.547L153.277 212.586Z" fill="#FF5B03"/>
<path d="M173.137 196.029L178.483 190.624C178.656 190.449 179.195 190.808 180.1 191.703C181.001 192.594 181.364 193.127 181.191 193.302L178.418 196.107L180.164 197.834L182.014 195.962C182.184 195.791 182.665 196.097 183.459 196.882C184.248 197.662 184.562 198.134 184.401 198.297L182.538 200.181L186.233 203.835C186.377 203.976 186.281 204.261 185.946 204.687C185.615 205.118 185.324 205.46 185.072 205.715L184.327 206.397C183.77 206.84 183.42 206.99 183.277 206.848L173.142 196.826C172.979 196.665 172.904 196.524 172.919 196.405C172.934 196.286 173.007 196.161 173.137 196.029Z" fill="#FF5B03"/>
<path d="M198.474 178.72L198.957 177.313L191.71 174.828L191.214 176.276C191.137 176.504 190.789 176.566 190.173 176.461C189.872 176.405 189.57 176.325 189.268 176.222C188.971 176.12 188.687 176 188.415 175.859C187.864 175.564 187.628 175.302 187.706 175.074L190.054 168.224C190.132 167.997 190.478 167.94 191.09 168.055C191.395 168.1 191.695 168.174 191.992 168.275C192.295 168.379 192.58 168.506 192.848 168.658C193.402 168.943 193.64 169.199 193.562 169.427L193.092 170.795L200.34 173.279L200.83 171.847C200.908 171.619 201.258 171.558 201.879 171.665C202.178 171.708 202.48 171.781 202.782 171.885C203.079 171.987 203.361 172.113 203.63 172.265C204.181 172.56 204.417 172.822 204.338 173.049L201.982 179.922C201.905 180.15 201.559 180.207 200.947 180.092C200.642 180.047 200.341 179.973 200.044 179.871C199.742 179.767 199.459 179.641 199.197 179.492C198.638 179.206 198.396 178.948 198.474 178.72Z" fill="#FF5B03"/>
<path d="M59.7742 152.66C59.7742 149.47 62.3604 146.885 65.5495 146.885C68.7395 146.885 71.3249 149.471 71.3249 152.66C71.3249 155.85 68.7386 158.435 65.5495 158.435C62.3596 158.435 59.7742 155.849 59.7742 152.66Z" fill="#FF5B03"/>
<path d="M195.868 152.66C195.868 149.47 198.454 146.885 201.644 146.885C204.834 146.885 207.419 149.471 207.419 152.66C207.419 155.85 204.833 158.435 201.644 158.435C198.454 158.435 195.869 155.849 195.868 152.66Z" fill="#FF5B03"/>
</g>
</g>
</g>
</g>
</g>
</g>
</g>
</g>
<defs>
<clipPath id="clip0_297_2436">
<rect width="268" height="301.408" fill="white"/>
</clipPath>
<clipPath id="clip1_297_2436">
<rect width="267.921" height="301.408" fill="white" transform="translate(0.0397949 0.00488281)"/>
</clipPath>
<clipPath id="clip2_297_2436">
<rect width="267.921" height="301.408" fill="white" transform="translate(0.0397949 0.00976562)"/>
</clipPath>
<clipPath id="clip3_297_2436">
<rect width="150.555" height="150.553" fill="white" transform="translate(58.7224 75.4463)"/>
</clipPath>
<clipPath id="clip4_297_2436">
<rect width="150.555" height="150.553" fill="white" transform="translate(58.7214 75.4561)"/>
</clipPath>
<clipPath id="clip5_297_2436">
<rect width="150.555" height="150.553" fill="white" transform="translate(58.7224 75.4658)"/>
</clipPath>
<clipPath id="clip6_297_2436">
<rect width="150.555" height="150.553" fill="white" transform="translate(58.7231 75.4766)"/>
</clipPath>
<clipPath id="clip7_297_2436">
<rect width="150.555" height="150.553" fill="white" transform="translate(58.7219 75.4863)"/>
</clipPath>
<clipPath id="clip8_297_2436">
<rect width="70.9721" height="70.9653" fill="white" transform="translate(98.5122 115.288)"/>
</clipPath>
<clipPath id="clip9_297_2436">
<rect width="70.9721" height="70.9653" fill="white" transform="translate(98.5122 115.298)"/>
</clipPath>
</defs>
</svg>
