<svg width="254" height="286" viewBox="0 0 254 286" fill="none" xmlns="http://www.w3.org/2000/svg">
<g clip-path="url(#clip0_297_2395)">
<g clip-path="url(#clip1_297_2395)">
<g clip-path="url(#clip2_297_2395)">
<path d="M126.856 270.105C120.671 270.105 115.33 266.17 113.644 260.267C112.8 257.175 109.427 255.488 106.616 256.331C105.492 256.613 104.367 257.456 103.524 258.58C99.0262 264.765 90.593 266.451 84.1276 261.954C80.1921 259.424 77.9433 254.926 78.2244 250.147C78.2244 247.055 75.6945 244.244 72.6023 244.244C71.1968 244.244 70.0724 244.525 68.9479 245.369C62.7636 249.866 54.0494 248.742 49.5517 242.558C46.7406 238.903 45.8973 234.124 47.584 229.627C48.7084 226.535 47.0218 223.443 43.9296 222.318C42.8052 222.037 41.3997 222.037 40.2752 222.318C32.9665 224.848 25.0956 220.913 22.5656 213.604C21.1601 209.388 21.7223 204.328 24.5334 200.673C26.5011 198.144 25.9389 194.489 23.4089 192.803C22.2845 191.959 21.1601 191.678 19.7546 191.678C12.1647 191.959 5.69931 185.775 5.69931 178.185C5.69931 173.407 7.94815 169.19 11.6025 166.379C14.1325 164.692 14.6947 161.038 13.008 158.508C12.1647 157.384 11.3214 156.822 9.91589 156.259C2.60715 154.011 -1.60942 146.14 0.639419 138.831C2.04494 134.333 5.4182 130.96 9.91589 129.555C13.008 128.711 14.6947 125.338 13.8514 122.527C13.5703 121.403 12.7269 120.278 11.6025 119.435C5.41821 114.937 3.73158 106.504 8.22926 100.039C10.7592 96.1037 15.2569 93.8549 20.0357 94.136C23.1278 94.136 25.9389 91.6061 25.9389 88.514C25.9389 87.1085 25.6578 85.9841 24.8145 84.8596C20.3168 78.6754 21.4412 69.9613 27.6255 65.4637C31.2799 62.6526 36.0587 61.8093 40.5563 63.4959C43.6485 64.6203 46.7406 62.9337 47.8651 59.8416C48.1462 58.7172 48.1462 57.3117 47.8651 56.1873C45.3351 48.8787 49.2706 41.0078 56.5793 38.4779C60.7959 37.0724 65.8558 37.6346 69.5102 40.4456C72.0401 42.4133 75.6945 41.8511 77.3811 39.3212C78.2244 38.1968 78.5055 37.0724 78.5055 35.6669C78.2244 28.0772 84.4087 21.6118 91.9986 21.6118C96.7773 21.6118 100.994 23.8606 103.805 27.515C105.492 30.0449 109.146 30.6071 111.676 28.9205C112.8 28.0772 113.363 27.2339 113.925 25.8284C116.174 18.5197 124.045 14.3032 131.353 16.552C135.851 17.9575 139.224 21.3307 140.63 25.8284C141.192 27.7961 142.879 29.4827 145.127 29.7638C147.376 30.0449 149.344 29.2016 150.75 27.515C155.247 21.3307 163.68 19.6441 170.146 24.1417C174.081 26.6717 176.33 31.1693 176.049 35.948C176.049 39.0401 178.579 41.8511 181.671 41.8511C183.077 41.8511 184.201 41.57 185.325 40.7267C191.51 36.2291 200.224 37.3535 204.722 43.5377C207.533 47.1921 208.376 51.9708 206.689 56.4684C205.565 59.5605 207.252 62.6526 210.344 63.777C211.468 64.0581 212.874 64.0581 213.998 63.777C221.307 61.2471 229.178 65.1826 231.708 72.4912C233.113 76.7077 232.551 81.7675 229.74 85.4218C227.772 87.9518 228.334 91.6061 230.864 93.2927C231.989 94.136 233.113 94.4171 234.519 94.4171C242.109 94.136 248.574 100.32 248.574 107.91C248.574 112.689 246.325 116.905 242.671 119.716C240.703 120.841 239.86 123.089 240.141 125.338C240.422 127.587 242.109 129.274 244.076 129.836C251.385 132.085 255.602 139.956 253.353 147.264C251.947 151.762 248.574 155.135 244.076 156.54C240.984 157.384 239.298 160.757 240.141 163.568C240.422 164.692 241.265 165.817 242.39 166.66C248.574 171.158 250.261 179.591 245.763 186.056C243.233 189.992 238.735 192.24 233.957 191.959C231.708 191.959 229.74 193.084 228.616 195.051C227.491 197.019 227.772 199.268 229.178 201.236C233.675 207.42 232.551 216.134 226.367 220.632C222.712 223.443 217.934 224.286 213.436 222.599C210.344 221.475 207.252 223.162 206.127 226.254C205.846 227.378 205.846 228.784 206.127 229.908C208.657 237.217 204.722 245.087 197.413 247.617C193.196 249.023 188.136 248.461 184.482 245.65C181.952 243.682 178.298 244.244 176.611 246.774C175.768 247.898 175.487 249.023 175.487 250.428C175.768 258.018 169.584 264.483 161.994 264.483C157.215 264.483 152.998 262.235 150.187 258.58C149.063 256.894 146.814 255.769 144.565 256.331C142.316 256.613 140.63 258.299 140.068 260.267C138.381 266.17 133.04 270.105 126.856 270.105ZM108.022 248.18C108.865 248.18 109.427 248.18 110.27 248.461C115.611 249.304 119.828 252.958 121.233 258.018C122.077 261.11 125.45 262.797 128.261 261.672C129.948 261.11 131.353 259.705 131.915 258.018C134.164 250.709 142.035 246.493 149.344 248.742C152.155 249.585 154.966 251.553 156.653 254.083C158.62 256.613 161.994 257.175 164.805 255.207C166.21 254.083 167.054 252.396 167.054 250.709C166.773 243.12 172.957 236.654 180.547 236.654C183.639 236.654 186.731 237.498 189.261 239.465C191.791 241.433 195.445 240.871 197.132 238.341C198.256 236.935 198.537 234.687 197.975 233C195.445 225.691 199.1 217.821 206.408 215.291C209.5 214.166 212.593 214.166 215.685 215.291C218.777 216.415 221.869 214.728 222.993 211.636C223.556 209.95 223.275 207.701 222.15 206.295C217.653 200.111 218.777 191.397 224.961 186.899C227.491 184.932 230.583 184.088 233.675 184.088C236.768 184.088 239.298 181.559 239.579 178.466C239.579 176.499 238.735 174.812 237.049 173.688C230.864 169.19 229.178 160.757 233.675 154.292C235.362 151.762 237.892 149.794 240.984 148.951C244.076 148.107 245.763 144.734 244.639 141.923C244.076 140.237 242.671 138.831 240.984 138.269C233.675 136.02 229.459 128.149 231.708 120.841C232.551 118.03 234.519 115.219 237.049 113.532C239.579 111.564 240.141 107.91 238.173 105.38C237.049 103.975 235.362 103.131 233.675 103.131C226.086 103.412 219.62 97.2281 219.62 89.6384C219.62 86.5462 220.464 83.4541 222.431 80.9242C224.399 78.3943 223.837 74.74 221.307 73.0534C219.901 71.929 217.652 71.6479 215.966 72.2101C208.657 74.74 200.786 71.0857 198.256 63.777C197.132 60.6849 197.132 57.5928 198.256 54.5007C199.381 51.4086 197.694 48.3165 194.602 47.1921C192.915 46.6299 190.666 46.911 189.261 48.0354C183.077 52.533 174.362 51.4086 169.865 45.2243C167.897 42.6944 167.054 39.6023 167.054 36.5102C167.054 33.4181 164.524 30.8882 161.15 30.8882C159.464 30.8882 157.496 31.7315 156.653 33.137C152.155 39.3212 143.722 41.0078 137.256 36.5102C134.727 34.8236 132.759 32.2937 131.915 29.2016C131.072 26.1095 127.699 24.4228 124.888 25.5473C123.201 26.1095 121.796 27.515 121.233 29.2016C118.985 36.5102 111.114 40.7267 103.805 38.4779C100.994 37.6346 98.1829 35.6669 96.4962 33.137C94.5285 30.6071 91.1552 30.0449 88.3442 32.0126C86.9387 33.137 86.0954 34.8236 86.0954 36.5102C86.3765 44.0999 80.1921 50.5653 72.6023 50.5653C69.5102 50.5653 66.418 49.722 63.8881 47.7543C61.3581 45.7865 57.7037 46.3488 56.0171 48.8787C54.8927 50.2842 54.6116 52.533 55.1738 54.2196C57.7037 61.5282 54.0494 69.3991 46.7406 71.929C43.6485 73.0534 40.5563 73.0534 37.4642 71.929C34.372 70.8046 31.2799 72.4912 30.1555 75.5833C29.5932 77.2699 29.8743 79.5187 30.9988 80.9242C35.4964 87.1085 34.372 95.8226 28.1877 100.32C25.6578 102.288 22.5656 103.131 19.4735 103.131C16.3813 103.131 13.8514 105.661 13.8514 109.034C13.8514 110.721 14.6947 112.689 16.1002 113.532C22.2845 118.03 23.9711 126.463 19.4735 132.928C17.7868 135.458 15.2569 137.426 12.1647 138.269C9.07257 139.112 7.38594 142.485 8.51036 145.296C9.07257 146.983 10.4781 148.389 12.1647 148.951C19.4735 151.2 23.69 159.07 21.4412 166.379C20.5979 169.19 18.6301 172.001 16.1002 173.688C13.5703 175.655 13.008 179.029 14.9758 181.84C16.1002 183.245 17.7868 184.088 19.4735 184.088C27.0633 183.807 33.5287 189.992 33.5287 197.581C33.5287 200.673 32.6854 203.766 30.7177 206.295C28.7499 208.825 29.3121 212.48 31.8421 214.166C33.2476 215.291 35.4964 215.572 37.1831 215.01C44.4918 212.48 52.3627 216.134 54.8927 223.443C56.0171 226.535 56.0171 229.627 54.8927 232.719C53.7683 235.811 55.4549 238.903 58.5471 240.028C60.2337 240.59 62.4825 240.309 63.8881 239.184C70.0724 234.687 78.7866 235.811 83.2843 241.995C85.252 244.525 86.0954 247.617 86.0954 250.709C86.0954 253.802 88.6253 256.331 91.7175 256.613C93.6852 256.613 95.3718 255.769 96.4962 254.083C99.3073 250.428 103.524 248.18 108.022 248.18Z" fill="#FAFAFA"/>
<g clip-path="url(#clip3_297_2395)">
<g clip-path="url(#clip4_297_2395)">
<g clip-path="url(#clip5_297_2395)">
<g clip-path="url(#clip6_297_2395)">
<g clip-path="url(#clip7_297_2395)">
<g clip-path="url(#clip8_297_2395)">
<g clip-path="url(#clip9_297_2395)">
<path d="M160.024 125.534L146.561 140.144C146.544 140.161 146.526 140.177 146.507 140.194C144.259 142.409 141.331 143.516 138.402 143.516C136.655 143.516 134.907 143.122 133.303 142.333L121.764 153.872L122.613 154.721L101.789 175.545L101.788 175.546C100.946 176.388 99.874 176.862 98.7733 176.968C98.616 176.983 98.4578 176.99 98.2989 176.99C98.2206 176.99 98.1415 176.989 98.0633 176.985C97.5904 176.962 97.12 176.872 96.6681 176.714C96.593 176.688 96.518 176.659 96.4438 176.629C95.8507 176.388 95.2939 176.027 94.8121 175.545C94.3304 175.064 93.9697 174.508 93.7284 173.914C93.6986 173.84 93.6695 173.765 93.6437 173.689C93.4856 173.237 93.3952 172.768 93.3726 172.294C93.3613 172.058 93.3669 171.821 93.3895 171.585C93.4944 170.485 93.9689 169.413 94.8113 168.57L94.8121 168.569L115.635 147.747L116.484 148.596L128.023 137.057C125.903 132.742 126.634 127.38 130.223 123.79L130.228 123.795L144.83 110.341C145.281 109.891 145.786 109.732 146.222 109.732C146.654 109.732 147.019 109.887 147.199 110.066L131.852 125.413L131.853 125.415L147.2 110.068C147.56 110.428 147.82 111.542 146.926 112.436L133.472 127.035L136.778 130.341L151.377 116.887C151.827 116.437 152.332 116.279 152.769 116.28C153.2 116.28 153.566 116.434 153.745 116.613L138.398 131.96L138.4 131.961L153.747 116.615C154.107 116.974 154.367 118.088 153.472 118.983L140.019 133.582L143.329 136.892L157.929 123.439C158.379 122.989 158.884 122.831 159.321 122.832C159.753 122.832 160.118 122.986 160.297 123.165L144.95 138.512L144.951 138.513L160.298 123.167C160.658 123.526 160.919 124.639 160.024 125.534ZM136.399 147.749L135.549 148.598L133.203 146.253L127.927 151.529L130.272 153.874L129.423 154.723L150.246 175.545C152.172 177.471 155.295 177.471 157.221 175.545C159.148 173.619 159.147 170.496 157.221 168.57L136.399 147.749ZM116.45 144.813L124.108 137.155L121.76 134.808L106.758 119.807C105.221 118.27 100.83 114.918 98.9525 116.614L98.9501 116.616C95.6691 119.906 100.121 129.683 108.895 138.457C111.39 140.952 113.965 143.096 116.45 144.813Z" fill="#FAFAFA"/>
</g>
</g>
<path d="M72.8431 120.266C72.4305 121.377 72.0282 121.91 71.6369 121.867L68.9382 121.579L67.8059 124.627L69.9769 126.063C70.3427 126.283 70.3118 126.969 69.8841 128.119C69.6563 128.732 69.4532 129.172 69.2747 129.441C69.0961 129.709 68.9866 129.835 68.9469 129.82L57.2513 121.617C57.1466 121.578 57.4188 120.685 58.0678 118.937C58.7169 117.189 59.0939 116.334 59.1986 116.372L73.4057 117.882C73.4954 117.916 73.4557 118.235 73.2875 118.842C73.1192 119.448 72.9708 119.923 72.8431 120.266ZM61.9735 120.736L65.5555 123.247L66.3022 121.237L62.0156 120.623L61.9735 120.736Z" fill="#FAFAFA"/>
<path d="M83.3847 102.489L74.7759 93.1578C74.5815 92.9468 74.9917 92.3731 76.0074 91.4359C77.0231 90.4996 77.6278 90.1362 77.8222 90.3472L84.6044 97.6991L86.9182 95.5645C87.0976 95.3987 87.4388 95.5177 87.9411 95.9216C88.1847 96.1232 88.4188 96.3453 88.6425 96.5874C88.8624 96.8254 89.0718 97.0841 89.271 97.3626C89.6321 97.9189 89.7225 98.2791 89.5432 98.4457L84.921 102.709C84.702 102.911 84.4456 102.981 84.1513 102.92C83.8529 102.863 83.5974 102.72 83.3847 102.489Z" fill="#FAFAFA"/>
<path d="M119.55 86.0196C118.374 86.3068 117.752 86.3171 117.686 86.0489L115.326 78.1996L114.878 86.8416C114.865 87.0146 114.436 87.2043 113.589 87.4114C112.743 87.6185 112.289 87.6526 112.228 87.5137L107.735 79.9731L109.39 87.9533C109.423 88.1533 109.205 88.3485 108.737 88.5397C108.266 88.7373 107.867 88.8754 107.542 88.9547C107.217 89.0341 106.897 89.0904 106.583 89.123C105.93 89.1841 105.581 89.0944 105.533 88.8548L102.839 75.8532C102.76 75.5334 103.529 75.1755 105.145 74.7804C105.619 74.6645 106.209 74.5582 106.914 74.4638C107.619 74.3733 108.036 74.4249 108.165 74.6169L111.912 80.3143L112.325 73.5758C112.359 73.2013 113.23 72.8045 114.938 72.3872C115.429 72.2673 116.023 72.1602 116.723 72.0666C117.423 71.9777 117.795 72.0229 117.84 72.2039L121.593 85.0777C121.628 85.2221 121.396 85.3911 120.896 85.5847C120.396 85.7783 119.948 85.9228 119.55 86.0204V86.0196Z" fill="#FAFAFA"/>
<path d="M149.143 90.1238C148.018 89.7524 147.471 89.3699 147.499 88.9764L147.688 86.2689L144.6 85.2493L143.246 87.4711C143.039 87.8448 142.352 87.8393 141.187 87.4536C140.566 87.2489 140.119 87.0616 139.844 86.8926C139.57 86.7236 139.439 86.6189 139.453 86.5792L147.222 74.5909C147.257 74.4846 148.16 74.7242 149.931 75.3098C151.702 75.8946 152.57 76.2398 152.535 76.3461L151.546 90.5983C151.516 90.6887 151.195 90.6618 150.583 90.515C149.972 90.369 149.492 90.238 149.143 90.1238ZM148.276 79.2789L145.897 82.9497L147.933 83.6218L148.389 79.3162L148.276 79.2789Z" fill="#FAFAFA"/>
<path d="M177.03 91.2729L182.096 96.3957C182.26 96.5616 181.914 97.0694 181.057 97.9169C180.203 98.7612 179.693 99.1 179.529 98.9342L176.901 96.2759L175.246 97.9129L177 99.6864C177.16 99.8491 176.865 100.302 176.113 101.045C175.365 101.784 174.914 102.077 174.762 101.922L172.996 100.137L169.494 103.601C169.359 103.735 169.09 103.642 168.69 103.32C168.286 103.002 167.964 102.722 167.726 102.48L167.087 101.767C166.673 101.235 166.534 100.901 166.669 100.767L176.275 91.2681C176.43 91.115 176.564 91.0459 176.676 91.0618C176.789 91.0777 176.907 91.1475 177.03 91.2729Z" fill="#FAFAFA"/>
<path d="M184.927 121.545L185.384 122.88L192.253 120.525L191.783 119.153C191.709 118.938 191.935 118.688 192.462 118.407C192.714 118.275 192.984 118.161 193.27 118.062C193.552 117.965 193.835 117.89 194.12 117.838C194.704 117.739 195.033 117.797 195.107 118.014L197.332 124.505C197.406 124.721 197.181 124.964 196.656 125.234C196.402 125.378 196.133 125.497 195.852 125.593C195.566 125.692 195.281 125.761 194.997 125.802C194.411 125.913 194.082 125.86 194.008 125.644L193.563 124.348L186.695 126.702L187.16 128.059C187.234 128.275 187.008 128.524 186.481 128.806C186.232 128.947 185.964 129.067 185.677 129.165C185.396 129.262 185.111 129.331 184.823 129.375C184.239 129.474 183.91 129.415 183.835 129.198L181.603 122.684C181.529 122.469 181.754 122.225 182.279 121.956C182.533 121.812 182.802 121.693 183.082 121.596C183.369 121.497 183.654 121.428 183.938 121.387C184.523 121.276 184.853 121.329 184.927 121.545Z" fill="#FAFAFA"/>
<path d="M63.0276 173.711C62.615 172.6 62.5714 171.934 62.8967 171.712L65.1289 170.168L63.9973 167.12L61.416 167.449C60.9947 167.52 60.5709 166.981 60.1432 165.831C59.9155 165.218 59.7822 164.752 59.7425 164.432C59.7028 164.112 59.7036 163.945 59.7433 163.931L73.9583 162.511C74.0583 162.474 74.432 163.33 75.0819 165.078C75.731 166.826 76.0064 167.719 75.9064 167.756L64.1576 175.885C64.0679 175.918 63.8894 175.65 63.6212 175.081C63.353 174.512 63.1554 174.055 63.0276 173.711ZM70.9485 166.264L66.6032 166.697L67.3491 168.706L70.9898 166.376L70.9485 166.264Z" fill="#FAFAFA"/>
<path d="M77.9722 193.701L86.5803 184.37C86.7747 184.159 87.3802 184.522 88.3951 185.458C89.4108 186.395 89.821 186.968 89.6266 187.179L82.8444 194.531L85.1591 196.666C85.3384 196.832 85.2472 197.181 84.8854 197.714C84.7044 197.974 84.5021 198.224 84.2783 198.466C84.0585 198.704 83.8181 198.934 83.5562 199.156C83.0309 199.561 82.6786 199.68 82.4985 199.514L77.877 195.25C77.658 195.049 77.5676 194.799 77.6041 194.5C77.6374 194.198 77.7596 193.932 77.9722 193.701Z" fill="#FAFAFA"/>
<path d="M117.073 214.445C115.896 214.157 115.341 213.879 115.407 213.611L116.931 205.558L112.549 213.019C112.453 213.165 111.984 213.136 111.143 212.93C110.296 212.723 109.878 212.544 109.887 212.393L109.379 203.63L107.166 211.475C107.103 211.667 106.819 211.74 106.317 211.694C105.808 211.651 105.39 211.59 105.066 211.511C104.74 211.432 104.431 211.334 104.136 211.218C103.529 210.971 103.26 210.73 103.328 210.495L106.935 197.717C107.011 197.402 107.855 197.441 109.466 197.835C109.946 197.952 110.52 198.131 111.189 198.371C111.858 198.61 112.205 198.846 112.23 199.077L112.926 205.867L116.402 200.071C116.604 199.759 117.559 199.812 119.267 200.23C119.752 200.348 120.327 200.527 120.99 200.766C121.653 201.005 121.963 201.217 121.918 201.403L119.32 214.551C119.285 214.695 119.001 214.738 118.468 214.679C117.936 214.621 117.471 214.542 117.073 214.445Z" fill="#FAFAFA"/>
<path d="M152.426 210.148C151.301 210.52 150.633 210.539 150.423 210.206L148.962 207.919L145.874 208.938L146.109 211.529C146.166 211.953 145.61 212.357 144.445 212.742C143.825 212.947 143.354 213.064 143.033 213.091C142.711 213.119 142.545 213.113 142.531 213.072L141.633 198.815C141.6 198.714 142.469 198.371 144.239 197.786C146.01 197.202 146.912 196.96 146.946 197.06L154.64 209.099C154.67 209.189 154.395 209.358 153.817 209.605C153.238 209.852 152.775 210.033 152.426 210.148ZM145.274 201.96L145.547 206.318L147.582 205.646L145.387 201.923L145.274 201.96Z" fill="#FAFAFA"/>
<path d="M164.097 186.284L169.164 181.161C169.328 180.995 169.839 181.335 170.696 182.184C171.55 183.028 171.894 183.533 171.731 183.699L169.103 186.358L170.757 187.994L172.511 186.22C172.671 186.058 173.127 186.348 173.879 187.092C174.628 187.831 174.925 188.279 174.772 188.433L173.007 190.219L176.509 193.682C176.645 193.816 176.554 194.085 176.237 194.489C175.924 194.897 175.647 195.222 175.409 195.463L174.702 196.11C174.175 196.529 173.843 196.672 173.707 196.537L164.102 187.039C163.947 186.886 163.876 186.753 163.891 186.64C163.905 186.527 163.974 186.408 164.097 186.284Z" fill="#FAFAFA"/>
<path d="M188.109 169.868L188.567 168.534L181.698 166.18L181.229 167.552C181.155 167.767 180.826 167.826 180.242 167.727C179.957 167.674 179.67 167.598 179.384 167.501C179.102 167.404 178.833 167.29 178.575 167.156C178.053 166.876 177.829 166.629 177.904 166.412L180.129 159.92C180.203 159.705 180.53 159.651 181.11 159.76C181.399 159.803 181.684 159.873 181.966 159.969C182.252 160.067 182.523 160.188 182.777 160.331C183.302 160.601 183.528 160.844 183.454 161.06L183.009 162.357L189.877 164.711L190.342 163.354C190.416 163.138 190.748 163.08 191.336 163.181C191.62 163.222 191.905 163.291 192.192 163.39C192.474 163.486 192.741 163.606 192.996 163.75C193.518 164.03 193.742 164.278 193.667 164.493L191.434 171.007C191.36 171.223 191.033 171.277 190.453 171.168C190.164 171.126 189.879 171.056 189.597 170.959C189.311 170.86 189.042 170.741 188.794 170.599C188.264 170.328 188.035 170.084 188.109 169.868Z" fill="#FAFAFA"/>
<path d="M56.6548 145.165C56.6548 142.142 59.106 139.691 62.1284 139.691C65.1517 139.691 67.6021 142.143 67.6021 145.165C67.6021 148.188 65.1509 150.639 62.1284 150.639C59.1052 150.639 56.6548 148.187 56.6548 145.165Z" fill="#FAFAFA"/>
<path d="M185.639 145.165C185.639 142.142 188.09 139.691 191.114 139.691C194.137 139.691 196.587 142.143 196.587 145.165C196.587 148.188 194.136 150.639 191.114 150.639C188.09 150.639 185.64 148.187 185.639 145.165Z" fill="#FAFAFA"/>
</g>
</g>
</g>
</g>
</g>
</g>
</g>
</g>
<defs>
<clipPath id="clip0_297_2395">
<rect width="254" height="285.662" fill="white"/>
</clipPath>
<clipPath id="clip1_297_2395">
<rect width="253.925" height="285.662" fill="white" transform="translate(0.036377 0.0771484)"/>
</clipPath>
<clipPath id="clip2_297_2395">
<rect width="253.925" height="285.662" fill="white" transform="translate(0.0356445 0.143555)"/>
</clipPath>
<clipPath id="clip3_297_2395">
<rect width="142.69" height="142.688" fill="white" transform="translate(55.6521 71.6904)"/>
</clipPath>
<clipPath id="clip4_297_2395">
<rect width="142.69" height="142.688" fill="white" transform="translate(55.6533 71.7676)"/>
</clipPath>
<clipPath id="clip5_297_2395">
<rect width="142.69" height="142.688" fill="white" transform="translate(55.6543 71.8281)"/>
</clipPath>
<clipPath id="clip6_297_2395">
<rect width="142.69" height="142.688" fill="white" transform="translate(55.6562 71.8789)"/>
</clipPath>
<clipPath id="clip7_297_2395">
<rect width="142.69" height="142.688" fill="white" transform="translate(55.6562 71.9561)"/>
</clipPath>
<clipPath id="clip8_297_2395">
<rect width="67.2646" height="67.258" fill="white" transform="translate(93.3691 109.707)"/>
</clipPath>
<clipPath id="clip9_297_2395">
<rect width="67.2646" height="67.258" fill="white" transform="translate(93.3689 109.736)"/>
</clipPath>
</defs>
</svg>
