<svg width="63" height="71" viewBox="0 0 63 71" fill="none" xmlns="http://www.w3.org/2000/svg">
<g clip-path="url(#clip0_337_2690)">
<g clip-path="url(#clip1_337_2690)">
<g clip-path="url(#clip2_337_2690)">
<path d="M31.2154 66.4183C29.6937 66.4183 28.3795 65.4499 27.9645 63.9974C27.757 63.2365 26.9269 62.8215 26.2352 63.029C25.9586 63.0982 25.6819 63.3057 25.4744 63.5824C24.3677 65.1041 22.2926 65.5191 20.7017 64.4124C19.7333 63.7899 19.1799 62.6832 19.2491 61.5073C19.2491 60.7464 18.6266 60.0548 17.8657 60.0548C17.5199 60.0548 17.2432 60.1239 16.9665 60.3314C15.4448 61.4381 13.3005 61.1615 12.1938 59.6397C11.5021 58.7405 11.2946 57.5647 11.7096 56.458C11.9863 55.6971 11.5713 54.9363 10.8104 54.6596C10.5338 54.5904 10.1879 54.5904 9.91123 54.6596C8.11282 55.2821 6.17607 54.3137 5.55355 52.5153C5.2077 51.4778 5.34604 50.2328 6.03774 49.3336C6.52192 48.7111 6.38358 47.8119 5.76106 47.3968C5.48438 47.1893 5.2077 47.1202 4.86185 47.1202C2.99428 47.1893 1.40338 45.6676 1.40338 43.8001C1.40338 42.6242 1.95673 41.5867 2.85594 40.895C3.47846 40.48 3.6168 39.5808 3.20178 38.9582C2.99428 38.6816 2.78677 38.5432 2.44092 38.4049C0.642511 37.8515 -0.395032 35.9148 0.158325 34.1164C0.504172 33.0097 1.33421 32.1797 2.44092 31.8338C3.20178 31.6263 3.6168 30.7963 3.40929 30.1046C3.34012 29.828 3.13262 29.5513 2.85594 29.3438C1.33421 28.2371 0.91919 26.162 2.0259 24.5711C2.64843 23.6027 3.75514 23.0494 4.93102 23.1186C5.69189 23.1186 6.38358 22.496 6.38358 21.7352C6.38358 21.3893 6.31441 21.1127 6.10691 20.836C5.00019 19.3143 5.27687 17.17 6.7986 16.0633C7.6978 15.3717 8.87369 15.1641 9.9804 15.5792C10.7413 15.8558 11.5021 15.4408 11.7788 14.68C11.848 14.4033 11.848 14.0574 11.7788 13.7808C11.1563 11.9824 12.1247 10.0456 13.9231 9.42313C14.9606 9.07728 16.2057 9.21562 17.1049 9.90731C17.7274 10.3915 18.6266 10.2532 19.0416 9.63063C19.2491 9.35396 19.3183 9.07728 19.3183 8.73144C19.2491 6.86388 20.7708 5.27299 22.6384 5.27299C23.8143 5.27299 24.8519 5.82634 25.5435 6.72554C25.9586 7.34806 26.8578 7.4864 27.4803 7.07138C27.757 6.86388 27.8953 6.65637 28.0337 6.31053C28.587 4.51213 30.5238 3.4746 32.3222 4.02795C33.4289 4.3738 34.2589 5.20382 34.6048 6.31053C34.7431 6.79471 35.1581 7.20972 35.7115 7.27889C36.2648 7.34806 36.749 7.14055 37.0949 6.72554C38.2016 5.20382 40.2767 4.78881 41.8676 5.89551C42.8359 6.51803 43.3893 7.62473 43.3201 8.80061C43.3201 9.56146 43.9426 10.2532 44.7035 10.2532C45.0494 10.2532 45.326 10.184 45.6027 9.97648C47.1244 8.86977 49.2687 9.14645 50.3754 10.6682C51.0671 11.5674 51.2746 12.7432 50.8596 13.8499C50.5829 14.6108 50.9979 15.3717 51.7588 15.6483C52.0355 15.7175 52.3813 15.7175 52.658 15.6483C54.4564 15.0258 56.3932 15.9942 57.0157 17.7926C57.3615 18.8301 57.2232 20.0751 56.5315 20.9743C56.0473 21.5969 56.1856 22.496 56.8082 22.9111C57.0849 23.1186 57.3615 23.1877 57.7074 23.1877C59.575 23.1186 61.1659 24.6403 61.1659 26.5078C61.1659 27.6837 60.6125 28.7212 59.7133 29.4129C59.2291 29.6896 59.0216 30.243 59.0908 30.7963C59.1599 31.3497 59.575 31.7647 60.0591 31.903C61.8575 32.4564 62.8951 34.3931 62.3417 36.1915C61.9959 37.2982 61.1659 38.1282 60.0591 38.4741C59.2983 38.6816 58.8833 39.5116 59.0908 40.2033C59.1599 40.48 59.3674 40.7566 59.6441 40.9641C61.1659 42.0708 61.5809 44.1459 60.4742 45.7368C59.8516 46.7052 58.7449 47.2585 57.569 47.1893C57.0157 47.1893 56.5315 47.466 56.2548 47.9502C55.9781 48.4344 56.0473 48.9877 56.3932 49.4719C57.4999 50.9936 57.2232 53.1379 55.7015 54.2446C54.8023 54.9363 53.6264 55.1438 52.5197 54.7288C51.7588 54.4521 50.9979 54.8671 50.7213 55.6279C50.6521 55.9046 50.6521 56.2505 50.7213 56.5271C51.3438 58.3255 50.3754 60.2623 48.577 60.8848C47.5395 61.2306 46.2944 61.0923 45.3952 60.4006C44.7727 59.9164 43.8735 60.0548 43.4585 60.6773C43.2509 60.954 43.1818 61.2306 43.1818 61.5765C43.251 63.444 41.7292 65.0349 39.8616 65.0349C38.6858 65.0349 37.6482 64.4816 36.9565 63.5824C36.6798 63.1674 36.1265 62.8907 35.5731 63.029C35.0198 63.0982 34.6048 63.5132 34.4664 63.9974C34.0514 65.4499 32.7372 66.4183 31.2154 66.4183ZM26.5811 61.0231C26.7886 61.0231 26.9269 61.0231 27.1344 61.0923C28.4487 61.2998 29.4862 62.199 29.8321 63.444C30.0396 64.2049 30.8696 64.6199 31.5613 64.3432C31.9763 64.2049 32.3222 63.859 32.4605 63.444C33.0139 61.6456 34.9506 60.6081 36.749 61.1615C37.4407 61.369 38.1324 61.8532 38.5474 62.4757C39.0316 63.0982 39.8616 63.2365 40.5533 62.7523C40.8992 62.4757 41.1067 62.0607 41.1067 61.6456C41.0375 59.7781 42.5592 58.1872 44.4268 58.1872C45.1877 58.1872 45.9486 58.3947 46.5711 58.8789C47.1936 59.3631 48.0928 59.2247 48.5078 58.6022C48.7845 58.2564 48.8537 57.703 48.7153 57.288C48.0928 55.4896 48.992 53.5529 50.7904 52.9304C51.5513 52.6537 52.3122 52.6537 53.073 52.9304C53.8339 53.207 54.5947 52.792 54.8714 52.0312C55.0098 51.6162 54.9406 51.0628 54.6639 50.717C53.5572 49.1952 53.8339 47.051 55.3556 45.9443C55.9781 45.4601 56.739 45.2526 57.4999 45.2526C58.2607 45.2526 58.8833 44.6301 58.9524 43.8692C58.9524 43.3851 58.7449 42.97 58.3299 42.6934C56.8082 41.5867 56.3932 39.5116 57.4999 37.9207C57.9149 37.2982 58.5374 36.814 59.2983 36.6065C60.0591 36.399 60.4742 35.569 60.1975 34.8773C60.0591 34.4623 59.7133 34.1164 59.2983 33.9781C57.4999 33.4247 56.4623 31.488 57.0157 29.6896C57.2232 28.9979 57.7074 28.3062 58.3299 27.8912C58.9524 27.407 59.0908 26.5078 58.6066 25.8853C58.3299 25.5395 57.9149 25.332 57.4999 25.332C55.6323 25.4011 54.0414 23.8794 54.0414 22.0119C54.0414 21.251 54.2489 20.4902 54.7331 19.8676C55.2173 19.2451 55.0789 18.3459 54.4564 17.9309C54.1106 17.6542 53.5572 17.5851 53.1422 17.7234C51.3438 18.3459 49.407 17.4467 48.7845 15.6483C48.5078 14.8875 48.5078 14.1266 48.7845 13.3658C49.0612 12.6049 48.6462 11.844 47.8853 11.5674C47.4703 11.429 46.9169 11.4982 46.5711 11.7749C45.0494 12.8816 42.9051 12.6049 41.7984 11.0832C41.3142 10.4607 41.1067 9.6998 41.1067 8.93894C41.1067 8.17809 40.4842 7.55557 39.6541 7.55557C39.2391 7.55557 38.7549 7.76307 38.5474 8.10892C37.4407 9.63063 35.3656 10.0456 33.7747 8.93894C33.1522 8.52393 32.668 7.90141 32.4605 7.14055C32.253 6.37969 31.423 5.96468 30.7313 6.24136C30.3162 6.37969 29.9704 6.72554 29.8321 7.14055C29.2787 8.93894 27.342 9.97648 25.5435 9.42313C24.8519 9.21562 24.1602 8.73144 23.7451 8.10892C23.261 7.4864 22.4309 7.34806 21.7392 7.83224C21.3934 8.10892 21.1859 8.52393 21.1859 8.93894C21.255 10.8065 19.7333 12.3974 17.8657 12.3974C17.1049 12.3974 16.344 12.1899 15.7215 11.7057C15.0989 11.2215 14.1997 11.3599 13.7847 11.9824C13.508 12.3282 13.4389 12.8816 13.5772 13.2966C14.1997 15.095 13.3005 17.0317 11.5021 17.6542C10.7413 17.9309 9.9804 17.9309 9.21953 17.6542C8.45867 17.3775 7.6978 17.7926 7.42113 18.5534C7.28279 18.9684 7.35196 19.5218 7.62863 19.8676C8.73535 21.3893 8.45867 23.5336 6.93694 24.6403C6.31441 25.1245 5.55355 25.332 4.79268 25.332C4.03182 25.332 3.40929 25.9545 3.40929 26.7845C3.40929 27.1995 3.6168 27.6837 3.96265 27.8912C5.48438 28.9979 5.8994 31.073 4.79268 32.6639C4.37767 33.2864 3.75514 33.7706 2.99428 33.9781C2.23341 34.1856 1.81839 35.0156 2.09507 35.7073C2.23341 36.1223 2.57926 36.4682 2.99428 36.6065C4.79268 37.1599 5.83023 39.0966 5.27687 40.895C5.06936 41.5867 4.58518 42.2784 3.96265 42.6934C3.34012 43.1775 3.20178 44.0076 3.68597 44.6993C3.96265 45.0451 4.37767 45.2526 4.79268 45.2526C6.66026 45.1834 8.25116 46.7052 8.25116 48.5727C8.25116 49.3336 8.04365 50.0944 7.55947 50.717C7.07528 51.3395 7.21362 52.2387 7.83614 52.6537C8.18199 52.9304 8.73535 52.9995 9.15037 52.8612C10.9488 52.2387 12.8855 53.1379 13.508 54.9363C13.7847 55.6971 13.7847 56.458 13.508 57.2188C13.2314 57.9797 13.6464 58.7406 14.4072 59.0172C14.8223 59.1556 15.3756 59.0864 15.7215 58.8097C17.2432 57.703 19.3875 57.9797 20.4942 59.5014C20.9784 60.1239 21.1859 60.8848 21.1859 61.6456C21.1859 62.4065 21.8084 63.029 22.5693 63.0982C23.0534 63.0982 23.4685 62.8907 23.7451 62.4757C24.4368 61.5765 25.4744 61.0231 26.5811 61.0231Z" fill="#4C560F"/>
<g clip-path="url(#clip3_337_2690)">
<g clip-path="url(#clip4_337_2690)">
<g clip-path="url(#clip5_337_2690)">
<g clip-path="url(#clip6_337_2690)">
<g clip-path="url(#clip7_337_2690)">
<g clip-path="url(#clip8_337_2690)">
<g clip-path="url(#clip9_337_2690)">
<path d="M39.3749 30.7789L36.0623 34.3739C36.0581 34.378 36.0535 34.382 36.049 34.3862C35.4958 34.9312 34.7754 35.2034 34.0547 35.2034C33.6248 35.2034 33.1945 35.1065 32.8 34.9126L29.9607 37.7519L30.1696 37.9607L25.0455 43.0848L25.0453 43.085C24.838 43.2923 24.5743 43.4088 24.3035 43.4348C24.2647 43.4386 24.2258 43.4404 24.1867 43.4404C24.1674 43.4404 24.148 43.44 24.1287 43.439C24.0124 43.4334 23.8966 43.4112 23.7854 43.3723C23.767 43.3659 23.7485 43.3588 23.7302 43.3514C23.5843 43.2921 23.4473 43.2033 23.3288 43.0848C23.2102 42.9662 23.1215 42.8294 23.0621 42.6833C23.0548 42.6652 23.0476 42.6468 23.0412 42.6281C23.0023 42.5169 22.9801 42.4014 22.9745 42.2848C22.9718 42.2266 22.9731 42.1683 22.9787 42.1103C23.0045 41.8397 23.1213 41.576 23.3286 41.3685L23.3288 41.3683L28.4525 36.2446L28.6613 36.4535L31.5007 33.6142C30.9791 32.5524 31.159 31.233 32.0421 30.3496L32.0433 30.3508L35.6364 27.0403C35.7472 26.9295 35.8714 26.8906 35.9789 26.8906C36.0851 26.8906 36.175 26.9285 36.2191 26.9726L32.4428 30.7491L32.4432 30.7495L36.2195 26.9732C36.3081 27.0618 36.372 27.3358 36.152 27.556L32.8415 31.1482L33.655 31.9617L37.2472 28.6512C37.358 28.5404 37.4823 28.5015 37.5897 28.5017C37.696 28.5017 37.7859 28.5396 37.83 28.5837L34.0537 32.36L34.0541 32.3604L37.8304 28.5841C37.9189 28.6726 37.9829 28.9466 37.7629 29.1668L34.4524 32.759L35.267 33.5737L38.8595 30.2634C38.9703 30.1526 39.0946 30.1137 39.202 30.1139C39.3082 30.1139 39.3982 30.1519 39.4423 30.1959L35.6657 33.9722L35.6661 33.9726L39.4424 30.1963C39.531 30.2847 39.5951 30.5587 39.3749 30.7789ZM33.5617 36.245L33.3526 36.4541L32.7754 35.8769L31.477 37.1753L32.054 37.7523L31.8452 37.9611L36.9691 43.0848C37.443 43.5587 38.2114 43.5585 38.6854 43.0848C39.1593 42.6108 39.1591 41.8424 38.6854 41.3685L33.5617 36.245ZM28.653 35.5227L30.5373 33.6384L29.9597 33.0608L26.2682 29.3696C25.8899 28.9913 24.8096 28.1665 24.3475 28.5839L24.3469 28.5845C23.5396 29.394 24.635 31.7996 26.7941 33.9587C27.4079 34.5726 28.0416 35.1002 28.653 35.5227Z" fill="#4C560F"/>
</g>
</g>
<path d="M17.9225 29.477C17.821 29.7503 17.722 29.8815 17.6257 29.871L16.9616 29.8001L16.683 30.5501L17.2172 30.9033C17.3072 30.9576 17.2996 31.1263 17.1944 31.4094C17.1384 31.5601 17.0884 31.6685 17.0444 31.7345C17.0005 31.8005 16.9736 31.8315 16.9638 31.8278L14.0859 29.8095C14.0602 29.7999 14.1271 29.5801 14.2869 29.1499C14.4466 28.7198 14.5393 28.5095 14.5651 28.5189L18.0609 28.8904C18.083 28.8986 18.0732 28.9773 18.0318 29.1265C17.9904 29.2757 17.9539 29.3926 17.9225 29.477ZM15.2479 29.5926L16.1293 30.2105L16.313 29.7159L15.2582 29.5648L15.2479 29.5926Z" fill="#4C560F"/>
<path d="M20.5171 25.1046L18.3987 22.8084C18.3509 22.7565 18.4519 22.6153 18.7018 22.3847C18.9517 22.1543 19.1005 22.0649 19.1483 22.1169L20.8172 23.9259L21.3865 23.4006C21.4307 23.3598 21.5146 23.3891 21.6382 23.4885C21.6982 23.5381 21.7558 23.5928 21.8108 23.6523C21.8649 23.7109 21.9164 23.7745 21.9655 23.8431C22.0543 23.98 22.0766 24.0686 22.0324 24.1096L20.8951 25.1587C20.8412 25.2083 20.7781 25.2257 20.7057 25.2106C20.6323 25.1966 20.5694 25.1612 20.5171 25.1046Z" fill="#4C560F"/>
<path d="M29.4157 21.0506C29.1261 21.1213 28.9732 21.1238 28.957 21.0579L28.3761 19.1264L28.266 21.2529C28.2629 21.2955 28.1572 21.3421 27.9489 21.3931C27.7406 21.4441 27.6289 21.4525 27.6138 21.4183L26.5083 19.5628L26.9156 21.5265C26.9236 21.5757 26.8701 21.6237 26.7549 21.6707C26.6389 21.7194 26.5409 21.7533 26.4609 21.7729C26.3808 21.7924 26.3021 21.8063 26.2248 21.8143C26.0643 21.8293 25.9782 21.8072 25.9665 21.7483L25.3036 18.549C25.2843 18.4704 25.4735 18.3823 25.871 18.2851C25.9878 18.2566 26.1328 18.2304 26.3062 18.2072C26.4798 18.1849 26.5825 18.1976 26.6141 18.2448L27.5361 19.6468L27.6377 17.9887C27.6461 17.8965 27.8604 17.7989 28.2808 17.6962C28.4015 17.6667 28.5477 17.6403 28.72 17.6173C28.8922 17.5954 28.9837 17.6066 28.9947 17.6511L29.9182 20.8189C29.9268 20.8544 29.8698 20.896 29.7468 20.9436C29.6238 20.9913 29.5135 21.0268 29.4157 21.0508V21.0506Z" fill="#4C560F"/>
<path d="M36.6972 22.0635C36.4203 21.9721 36.2856 21.878 36.2926 21.7811L36.3391 21.1149L35.5794 20.864L35.2461 21.4107C35.1951 21.5027 35.0262 21.5013 34.7394 21.4064C34.5867 21.3561 34.4766 21.31 34.409 21.2684C34.3414 21.2268 34.3094 21.201 34.3127 21.1913L36.2245 18.2414C36.2331 18.2152 36.4553 18.2742 36.8911 18.4183C37.3269 18.5622 37.5403 18.6471 37.5317 18.6733L37.2884 22.1802C37.281 22.2025 37.2021 22.1958 37.0516 22.1597C36.901 22.1238 36.7829 22.0916 36.6972 22.0635ZM36.4838 19.3949L35.8984 20.2982L36.3994 20.4636L36.5117 19.4041L36.4838 19.3949Z" fill="#4C560F"/>
<path d="M43.5594 22.3425L44.8059 23.6031C44.8463 23.6439 44.761 23.7688 44.5501 23.9774C44.34 24.1851 44.2146 24.2685 44.1742 24.2277L43.5275 23.5736L43.1202 23.9764L43.552 24.4128C43.5914 24.4528 43.5188 24.5643 43.3337 24.7471C43.1495 24.929 43.0386 25.0011 43.0011 24.963L42.5667 24.5237L41.705 25.376C41.6716 25.409 41.6057 25.3861 41.5071 25.3069C41.4077 25.2286 41.3286 25.1598 41.2698 25.1003L41.1126 24.9247C41.0107 24.7937 40.9765 24.7117 41.0099 24.6787L43.3735 22.3414C43.4116 22.3037 43.4446 22.2867 43.4723 22.2906C43.5 22.2945 43.5291 22.3117 43.5594 22.3425Z" fill="#4C560F"/>
<path d="M45.5031 29.7938L45.6156 30.1223L47.3057 29.5429L47.1899 29.2053C47.1718 29.1522 47.2274 29.0909 47.3571 29.0216C47.4191 28.9892 47.4855 28.9611 47.556 28.9367C47.6253 28.9129 47.695 28.8945 47.7651 28.8816C47.9088 28.8572 47.9897 28.8717 48.008 28.925L48.5555 30.5221C48.5737 30.5752 48.5182 30.6352 48.389 30.7016C48.3265 30.7369 48.2605 30.7664 48.1914 30.79C48.1209 30.8142 48.0508 30.8312 47.9809 30.8414C47.8368 30.8687 47.7558 30.8556 47.7374 30.8025L47.6281 30.4835L45.9381 31.0628L46.0526 31.3967C46.0707 31.4498 46.0151 31.5111 45.8854 31.5804C45.8241 31.6152 45.7581 31.6446 45.6876 31.6689C45.6183 31.6927 45.5482 31.7097 45.4773 31.7204C45.3336 31.7448 45.2528 31.7304 45.2344 31.6771L44.685 30.0742C44.6668 30.0211 44.7223 29.9612 44.8516 29.895C44.914 29.8596 44.98 29.8302 45.0492 29.8063C45.1196 29.7821 45.1897 29.7651 45.2596 29.755C45.4037 29.7276 45.4848 29.7407 45.5031 29.7938Z" fill="#4C560F"/>
<path d="M15.5075 42.6284C15.4059 42.355 15.3952 42.191 15.4753 42.1363L16.0245 41.7565L15.7461 41.0064L15.1109 41.0874C15.0072 41.105 14.903 40.9722 14.7977 40.6893C14.7417 40.5386 14.7089 40.4238 14.6991 40.3451C14.6894 40.2664 14.6896 40.2252 14.6993 40.2217L18.1971 39.8724C18.2217 39.8632 18.3137 40.0739 18.4736 40.504C18.6333 40.9341 18.7011 41.1538 18.6765 41.163L15.7855 43.1631C15.7635 43.1713 15.7195 43.1054 15.6535 42.9654C15.5875 42.8254 15.5389 42.7129 15.5075 42.6284ZM17.4565 40.7959L16.3873 40.9023L16.5708 41.3967L17.4667 40.8234L17.4565 40.7959Z" fill="#4C560F"/>
<path d="M19.1853 47.5458L21.3034 45.2497C21.3513 45.1977 21.5002 45.2872 21.75 45.5176C21.9999 45.748 22.1008 45.8891 22.053 45.9411L20.3842 47.7501L20.9537 48.2753C20.9979 48.3161 20.9754 48.402 20.8864 48.5332C20.8418 48.5971 20.7921 48.6588 20.737 48.7183C20.6829 48.7769 20.6237 48.8335 20.5593 48.888C20.4301 48.9876 20.3434 49.0171 20.299 48.9761L19.1619 47.927C19.108 47.8774 19.0857 47.8159 19.0947 47.7425C19.1029 47.6681 19.133 47.6027 19.1853 47.5458Z" fill="#4C560F"/>
<path d="M28.8061 52.6531C28.5166 52.5824 28.3799 52.5139 28.3961 52.4481L28.7712 50.4665L27.6928 52.3025C27.6692 52.3384 27.554 52.3312 27.3468 52.2804C27.1385 52.2294 27.0356 52.1855 27.0379 52.1484L26.9128 49.992L26.3684 51.9223C26.3528 51.9695 26.2831 51.9875 26.1595 51.9762C26.0341 51.9658 25.9314 51.9508 25.8515 51.9313C25.7715 51.9118 25.6953 51.8877 25.6227 51.8592C25.4733 51.7985 25.4071 51.7391 25.4239 51.6814L26.3114 48.537C26.3303 48.4595 26.5379 48.4692 26.9342 48.5661C27.0524 48.595 27.1937 48.6389 27.3583 48.6979C27.5229 48.7569 27.6082 48.8148 27.6145 48.8717L27.7857 50.5424L28.641 49.1163C28.6907 49.0396 28.9256 49.0527 29.346 49.1554C29.4653 49.1845 29.6067 49.2286 29.7699 49.2874C29.9331 49.3461 30.0093 49.3983 29.9982 49.444L29.3589 52.6793C29.3503 52.7148 29.2804 52.7254 29.1494 52.7109C29.0184 52.6965 28.904 52.6771 28.8061 52.6531Z" fill="#4C560F"/>
<path d="M37.5052 51.5941C37.2283 51.6855 37.0639 51.6902 37.0122 51.6082L36.6527 51.0455L35.893 51.2964L35.9508 51.9339C35.9646 52.0381 35.828 52.1375 35.5413 52.2324C35.3886 52.2828 35.2729 52.3115 35.1938 52.3183C35.1147 52.3252 35.0737 52.3236 35.0704 52.3136L34.8493 48.8053C34.8411 48.7805 35.055 48.6962 35.4906 48.5523C35.9264 48.4084 36.1484 48.3488 36.1566 48.3736L38.0498 51.3358C38.0572 51.3581 37.9896 51.3997 37.8473 51.4604C37.7049 51.5211 37.5909 51.5656 37.5052 51.5941ZM35.7452 49.5793L35.8123 50.6516L36.3132 50.4863L35.7731 49.5701L35.7452 49.5793Z" fill="#4C560F"/>
<path d="M40.3769 45.7188L41.6236 44.4583C41.664 44.4175 41.7898 44.5012 42.0006 44.7099C42.2107 44.9177 42.2955 45.0421 42.2552 45.0829L41.6086 45.737L42.0157 46.1396L42.4472 45.7032C42.4866 45.6632 42.5989 45.7346 42.784 45.9176C42.9681 46.0996 43.0413 46.2097 43.0037 46.2478L42.5692 46.6871L43.4311 47.5392C43.4645 47.5722 43.4422 47.6385 43.3641 47.7379C43.287 47.8383 43.219 47.9181 43.1602 47.9775L42.9865 48.1366C42.8566 48.2399 42.775 48.2751 42.7416 48.2419L40.3781 45.9047C40.34 45.867 40.3226 45.8342 40.3261 45.8065C40.3296 45.7788 40.3466 45.7495 40.3769 45.7188Z" fill="#4C560F"/>
<path d="M46.2856 41.6813L46.3983 41.3531L44.7081 40.7738L44.5926 41.1114C44.5744 41.1645 44.4934 41.179 44.3497 41.1546C44.2796 41.1415 44.2091 41.1229 44.1386 41.0989C44.0693 41.0751 44.0031 41.047 43.9396 41.0142C43.8111 40.9452 43.7561 40.8843 43.7744 40.831L44.3219 39.2337C44.3401 39.1805 44.4207 39.1673 44.5635 39.1942C44.6345 39.2048 44.7046 39.2219 44.7739 39.2456C44.8444 39.2698 44.911 39.2995 44.9735 39.3348C45.1028 39.4012 45.1582 39.4609 45.14 39.514L45.0305 39.8333L46.7206 40.4124L46.8351 40.0785C46.8532 40.0254 46.9348 40.0112 47.0797 40.036C47.1494 40.0461 47.2197 40.0631 47.2902 40.0873C47.3595 40.1111 47.4253 40.1406 47.488 40.1759C47.6165 40.2449 47.6715 40.3058 47.6532 40.3589L47.1037 41.9617C47.0856 42.0148 47.0049 42.0281 46.8622 42.0014C46.7911 41.9908 46.721 41.9736 46.6517 41.9498C46.5812 41.9256 46.5152 41.8961 46.4541 41.8614C46.3237 41.7946 46.2675 41.7345 46.2856 41.6813Z" fill="#4C560F"/>
<path d="M13.9395 35.6037C13.9395 34.8598 14.5426 34.2568 15.2863 34.2568C16.0302 34.2568 16.6332 34.86 16.6332 35.6037C16.6332 36.3476 16.03 36.9505 15.2863 36.9505C14.5424 36.9505 13.9395 36.3474 13.9395 35.6037Z" fill="#4C560F"/>
<path d="M45.6777 35.6037C45.6777 34.8598 46.2809 34.2568 47.0248 34.2568C47.7687 34.2568 48.3717 34.86 48.3717 35.6037C48.3717 36.3476 47.7685 36.9505 47.0248 36.9505C46.2809 36.9505 45.6779 36.3474 45.6777 35.6037Z" fill="#4C560F"/>
</g>
</g>
</g>
</g>
</g>
</g>
</g>
</g>
<defs>
<clipPath id="clip0_337_2690">
<rect width="62.5" height="70.291" fill="white"/>
</clipPath>
<clipPath id="clip1_337_2690">
<rect width="62.4815" height="70.291" fill="white" transform="translate(0.00927734 0.00195312)"/>
</clipPath>
<clipPath id="clip2_337_2690">
<rect width="62.4815" height="70.291" fill="white" transform="translate(0.00927734 0.00292969)"/>
</clipPath>
<clipPath id="clip3_337_2690">
<rect width="35.1107" height="35.1104" fill="white" transform="translate(13.6943 17.5947)"/>
</clipPath>
<clipPath id="clip4_337_2690">
<rect width="35.1107" height="35.1104" fill="white" transform="translate(13.6943 17.5977)"/>
</clipPath>
<clipPath id="clip5_337_2690">
<rect width="35.1107" height="35.1104" fill="white" transform="translate(13.6943 17.6006)"/>
</clipPath>
<clipPath id="clip6_337_2690">
<rect width="35.1107" height="35.1104" fill="white" transform="translate(13.6943 17.6035)"/>
</clipPath>
<clipPath id="clip7_337_2690">
<rect width="35.1107" height="35.1104" fill="white" transform="translate(13.6943 17.6064)"/>
</clipPath>
<clipPath id="clip8_337_2690">
<rect width="16.5513" height="16.5498" fill="white" transform="translate(22.9736 26.8887)"/>
</clipPath>
<clipPath id="clip9_337_2690">
<rect width="16.5513" height="16.5498" fill="white" transform="translate(22.9736 26.8906)"/>
</clipPath>
</defs>
</svg>
