<svg width="119" height="92" viewBox="0 0 119 92" fill="none" xmlns="http://www.w3.org/2000/svg">
<path d="M107.875 2.875C101.909 0.99375 95.3512 0.1875 89.0625 0.1875C78.5812 0.1875 67.2938 2.3375 59.5 8.25C51.7062 2.3375 40.4188 0.1875 29.9375 0.1875C19.4562 0.1875 8.16875 2.3375 0.375 8.25V86.9937C0.375 88.3375 1.71875 89.6812 3.0625 89.6812C3.6 89.6812 3.86875 89.4125 4.40625 89.4125C11.6625 85.9188 22.1437 83.5 29.9375 83.5C40.4188 83.5 51.7062 85.65 59.5 91.5625C66.7563 86.9937 79.925 83.5 89.0625 83.5C97.9312 83.5 107.069 85.1125 114.594 89.1437C115.131 89.4125 115.4 89.4125 115.938 89.4125C117.281 89.4125 118.625 88.0688 118.625 86.725V8.25C115.4 5.83125 111.906 4.21875 107.875 2.875ZM107.875 75.4375C101.962 73.5563 95.5125 72.75 89.0625 72.75C79.925 72.75 66.7563 76.2437 59.5 80.8125V19C66.7563 14.4312 79.925 10.9375 89.0625 10.9375C95.5125 10.9375 101.962 11.7438 107.875 13.625V75.4375Z" fill="#FAFAFA"/>
</svg>
